<?xml version="1.0" encoding="UTF-8"?>
<svg id="Layer_1" data-name="Layer 1" xmlns="http://www.w3.org/2000/svg" viewBox="0 0 4203.47 2045.58">
  <defs>
    <style>
      .cls-1 {
        fill: none;
      }

      .cls-2, .cls-3 {
        fill: #fff;
      }

      .cls-4 {
        fill: #f0f1f0;
      }

      .cls-3 {
        stroke: #fff;
        stroke-miterlimit: 10;
        stroke-width: 30px;
      }

      .cls-5 {
        fill: #006165;
      }

      .cls-6 {
        fill: #f6a800;
      }
    </style>
  </defs>
  <g>
    <rect class="cls-5" width="2000" height="2000" rx="376.88" ry="376.88"/>
    <g>
      <path class="cls-2" d="M1305.5,1349.09c-22.82.02-45.65-.43-68.46.25-8.28.25-10.74-1.89-9.91-11,7.52-82.1,27.92-159.41,71.62-228.18,13.78-21.68,27.28-43.59,41.89-64.61,26.29-37.83,66.7-46.31,99.28-21.75,32.05,24.16,39.08,72.86,14.76,106.75-19.98,27.84-39.93,55.54-53.96,87.7-16.74,38.39-21.56,78.45-15.82,120.13,1.12,8.12-.12,11.15-8.6,10.91-23.59-.66-47.21-.23-70.82-.21Z"/>
      <path class="cls-2" d="M1439.72,1002.28c-31.59-11.27-62.36-12.55-90.41,10.42-14.57,11.93-25.42,27.65-35.17,44.24-1.68,2.86-3.28,5.86-5.39,8.32-1.92,2.23-2.89,7.12-6.84,5.25-2.98-1.41-1.4-5.33-1.46-8.07-.52-20.99-2.01-41.87-4.39-62.72-7.54-65.97-18.79-130.98-42.26-192.81-7.82-20.61-16.4-40.88-20.79-62.78-6.53-32.54,7.76-68.7,33.81-85.99,29.21-19.38,65.54-18.51,88.94,3.06,20.39,18.8,26.94,44,25.56,72.03-.61,12.28-1.98,24.51-3.12,36.75-7.98,85.28,12.78,161.54,61.38,229.09.46.64.58,1.56.86,2.35l-.69.87Z"/>
      <path class="cls-2" d="M1394.36,765.23c6.95-45.28,4.93-87.07-30.25-119.02,41.8-19.94,82.71-39.5,123.66-58.96,29.35-13.95,58.07-29.23,86.55-45.18,48.71-27.28,99.02-2.25,110.04,54.38,8.79,45.16-27.28,86.22-60.96,85.68-54.31-.87-102.06,18.62-148.19,45.93-25.39,15.03-51.62,27.59-80.86,37.17Z"/>
      <path class="cls-2" d="M1307.68,1489.8c-50.37-.01-100.74-.2-151.1.18-7.94.06-10.83-1.59-10.54-10.96.71-22.95.09-45.95.3-68.92.17-18.39,8.53-27.23,25.36-27.36,9.44-.07,18.89-.12,28.33.07,6.76.13,13.13-2.17,16.51-7.97,4.26-7.3,9.63-8.27,16.66-8.24,49.58.18,99.16.1,148.74-.05,6.1-.02,11.19.4,15.13,6.83,4.39,7.14,11.43,9.7,19.5,9.45,10.62-.33,21.25-.31,31.87-.03,13.37.36,21.98,9.49,22.15,24.03.3,24.25-.27,48.52.32,72.76.21,8.54-2.22,10.46-9.78,10.4-51.15-.35-102.31-.18-153.47-.19Z"/>
      <path class="cls-2" d="M1701.37,623.2c5.21,7.6,9.87,13.73,13.84,20.34,13.88,23.1,27.63,46.3,41.2,69.61,9.04,15.53,6.73,25.33-7.57,35.02-14.94,10.13-29.7,20.57-44.76,30.48-16.67,10.98-25.62,8.84-36.7-8.35-13.24-20.54-26.28-41.21-39.54-61.73-3.66-5.67-4.84-8.49,3.6-10.34,37.25-8.15,58.94-34.15,69.92-75.04Z"/>
      <path class="cls-2" d="M1806.88,802.46c-.28,9.82-4.02,16.93-11.14,21.86-16.51,11.43-32.91,23.07-49.76,33.89-14.51,9.32-26.93,5.71-36.24-9.77-7.51-12.48-13.34-25.83-16.31-40.51-.71-3.51-1.33-5.57,3.06-7.64,25.65-12.05,48.36-29.5,71.12-46.79,1.99-1.51,3.16-5.48,6.56-2.25,14.91,14.17,26.13,31.01,32.71,51.21Z"/>
      <path class="cls-2" d="M1823.19,798.7c15.83,9.06,31.81,16.22,44.75,28.98,10.5,10.35,14.59,23.58,13.16,39.57-1.41,15.76-1.08,31.59.19,47.37.72,9-1.15,16.99-7.26,22.36-4.33,3.81-9.85,5.56-15.43,2.48-5.42-2.99-7.8-8.12-7.8-14.61-.02-17.86-.6-35.75.15-53.57.51-12.12-3.64-20.39-13.01-26.27-2.71-1.7-5.03-4.24-7.87-5.55-11.39-5.25-17.02-12.23-9.18-25.81,2.08-3.6,1.49-9.01,2.31-14.96Z"/>
      <path class="cls-2" d="M1703.67,869.87c5.11,2.8,9.3,6.67,13.87,7.3,13.82,1.9,12.17,10.39,9.6,21.02-4.67,19.33-1.82,26.14,13.69,37.17,12.42,8.83,24.97,17.47,37.25,26.52,9.82,7.23,12.97,17.09,8.42,24.53-5.8,9.47-14.94,10.57-25.63,2.84-12.68-9.18-24.85-19.25-37.96-27.64-22.88-14.64-28.39-36.91-25.22-63.17,1.14-9.49,3.88-18.76,5.98-28.57Z"/>
    </g>
    <g>
      <rect class="cls-4" x="232" y="163.08" width="136.11" height="136.11"/>
      <rect class="cls-4" x="381.72" y="163.08" width="136.11" height="136.11"/>
      <rect class="cls-4" x="531.44" y="163.08" width="136.11" height="136.11"/>
      <rect class="cls-4" x="830.89" y="163.08" width="136.11" height="136.11"/>
      <rect class="cls-4" x="681.17" y="163.08" width="136.11" height="136.11"/>
      <rect class="cls-4" x="232" y="312.81" width="136.11" height="136.11"/>
      <rect class="cls-4" x="381.72" y="312.81" width="136.11" height="136.11"/>
      <rect class="cls-4" x="531.44" y="312.81" width="136.11" height="136.11"/>
      <rect class="cls-4" x="830.89" y="312.81" width="136.11" height="136.11"/>
      <rect class="cls-4" x="681.17" y="312.81" width="136.11" height="136.11"/>
      <rect class="cls-4" x="232" y="462.53" width="136.11" height="136.11"/>
      <rect class="cls-4" x="381.72" y="462.53" width="136.11" height="136.11"/>
      <rect class="cls-4" x="531.44" y="462.53" width="136.11" height="136.11"/>
      <rect class="cls-6" x="830.89" y="462.53" width="136.11" height="136.11"/>
      <rect class="cls-6" x="681.17" y="462.53" width="136.11" height="136.11"/>
      <rect class="cls-4" x="232" y="612.25" width="136.11" height="136.11"/>
      <rect class="cls-4" x="381.72" y="612.25" width="136.11" height="136.11"/>
      <rect class="cls-6" x="531.44" y="612.25" width="136.11" height="136.11"/>
      <rect class="cls-4" x="830.89" y="612.25" width="136.11" height="136.11"/>
      <rect class="cls-6" x="681.17" y="612.25" width="136.11" height="136.11"/>
      <rect class="cls-4" x="232" y="761.97" width="136.11" height="136.11"/>
      <rect class="cls-6" x="381.72" y="761.97" width="136.11" height="136.11"/>
      <rect class="cls-6" x="531.44" y="761.97" width="136.11" height="136.11"/>
      <rect class="cls-4" x="830.89" y="761.97" width="136.11" height="136.11"/>
      <rect class="cls-4" x="681.17" y="761.97" width="136.11" height="136.11"/>
    </g>
    <g>
      <circle class="cls-2" cx="446.78" cy="1546.17" r="72.78"/>
      <circle class="cls-2" cx="621.44" cy="1764.5" r="72.78"/>
      <circle class="cls-2" cx="621.44" cy="1546.17" r="72.78"/>
      <circle class="cls-2" cx="534.11" cy="1327.83" r="72.78"/>
      <line class="cls-3" x1="679.67" y1="1109.5" x2="534.11" y2="1327.83"/>
      <line class="cls-3" x1="679.67" y1="1109.5" x2="825.22" y2="1327.83"/>
      <line class="cls-3" x1="534.11" y1="1327.83" x2="446.78" y2="1546.17"/>
      <line class="cls-3" x1="621.44" y1="1546.17" x2="534.11" y2="1327.83"/>
      <line class="cls-3" x1="621.44" y1="1546.17" x2="621.44" y2="1764.5"/>
      <circle class="cls-6" cx="825.22" cy="1327.83" r="72.78"/>
      <circle class="cls-6" cx="679.67" cy="1109.5" r="72.78"/>
    </g>
  </g>
  <g>
    <rect class="cls-1" x="2248.24" y="272.59" width="1955.24" height="1687.41"/>
    <path class="cls-2" d="M2268.24,723.58h57.6v238.4h102v47.2h-159.6v-285.6Z"/>
    <path class="cls-2" d="M2451.43,854.78c0-12.53,2-23,6-31.4,4-8.4,9.4-15.2,16.2-20.4,6.8-5.2,14.8-8.93,24-11.2,9.2-2.26,19-3.4,29.4-3.4,16.53,0,29.86,1.6,40,4.8,10.13,3.2,18,7.74,23.6,13.6,5.6,5.87,9.4,12.87,11.4,21,2,8.14,3,17,3,26.6v113.2c0,10.14.46,18,1.4,23.6.93,5.6,2.73,11.6,5.4,18h-52.8c-1.87-3.46-3.27-7.13-4.2-11-.94-3.86-1.8-7.66-2.6-11.4h-.8c-6.4,11.2-13.8,18.47-22.2,21.8-8.4,3.33-19.27,5-32.6,5-9.6,0-17.74-1.67-24.4-5-6.67-3.33-12-7.93-16-13.8-4-5.86-6.94-12.46-8.8-19.8-1.87-7.33-2.8-14.6-2.8-21.8,0-10.13,1.06-18.86,3.2-26.2,2.13-7.33,5.4-13.6,9.8-18.8,4.4-5.2,10-9.53,16.8-13,6.8-3.46,15-6.53,24.6-9.2l31.2-8.4c8.26-2.13,14-5.06,17.2-8.8,3.2-3.73,4.8-9.2,4.8-16.4,0-8.26-1.94-14.73-5.8-19.4-3.87-4.66-10.47-7-19.8-7-8.54,0-14.94,2.54-19.2,7.6-4.27,5.07-6.4,11.87-6.4,20.4v6h-49.6v-5.2ZM2540.23,908.58c-4.27,1.74-8.14,3-11.6,3.8-11.2,2.4-19.2,6.4-24,12-4.8,5.6-7.2,13.2-7.2,22.8,0,8.27,1.6,15.34,4.8,21.2,3.2,5.87,8.53,8.8,16,8.8,3.73,0,7.6-.6,11.6-1.8,4-1.2,7.66-3.13,11-5.8,3.33-2.66,6.06-6.13,8.2-10.4,2.13-4.26,3.2-9.33,3.2-15.2v-42.4c-3.74,2.94-7.74,5.27-12,7Z"/>
    <path class="cls-2" d="M2699.43,723.58v90.4h.8c5.86-8.53,12.46-14.93,19.8-19.2,7.33-4.26,16.2-6.4,26.6-6.4,22.66,0,39.33,8.87,50,26.6,10.66,17.74,16,46.6,16,86.6s-5.34,68.67-16,86c-10.67,17.34-27.34,26-50,26-11.2,0-20.6-2-28.2-6s-14.47-11.06-20.6-21.2h-.8v22.8h-52.8v-285.6h55.2ZM2704.83,954.58c3.6,11.87,11.53,17.8,23.8,17.8s19.8-5.93,23.4-17.8c3.6-11.86,5.4-29.53,5.4-53s-1.8-41.13-5.4-53c-3.6-11.86-11.4-17.8-23.4-17.8s-20.2,5.94-23.8,17.8c-3.6,11.87-5.4,29.54-5.4,53s1.8,41.14,5.4,53Z"/>
    <path class="cls-2" d="M3056.43,774.58c-4.94-9.46-13.94-14.2-27-14.2-7.2,0-13.14,1.94-17.8,5.8-4.67,3.87-8.34,10.14-11,18.8-2.67,8.67-4.54,20-5.6,34-1.07,14-1.6,31.14-1.6,51.4,0,21.6.73,39.07,2.2,52.4,1.46,13.34,3.73,23.67,6.8,31,3.06,7.34,6.93,12.27,11.6,14.8,4.66,2.54,10.06,3.8,16.2,3.8,5.06,0,9.8-.86,14.2-2.6,4.4-1.73,8.2-5.2,11.4-10.4,3.2-5.2,5.73-12.53,7.6-22,1.86-9.46,2.8-21.93,2.8-37.4h57.6c0,15.47-1.2,30.14-3.6,44-2.4,13.87-6.87,26-13.4,36.4-6.54,10.4-15.74,18.54-27.6,24.4-11.87,5.86-27.27,8.8-46.2,8.8-21.6,0-38.8-3.47-51.6-10.4-12.8-6.93-22.6-16.93-29.4-30-6.8-13.06-11.2-28.66-13.2-46.8-2-18.13-3-38.13-3-60s1-41.53,3-59.8c2-18.26,6.4-33.93,13.2-47,6.8-13.06,16.6-23.26,29.4-30.6,12.8-7.33,30-11,51.6-11s36.73,3.34,48.6,10c11.86,6.67,20.73,15.14,26.6,25.4,5.86,10.27,9.53,21.34,11,33.2,1.46,11.87,2.2,23,2.2,33.4h-57.6c0-20.8-2.47-35.93-7.4-45.4Z"/>
    <path class="cls-2" d="M3152.22,852.78c2.93-14.13,7.73-25.93,14.4-35.4,6.66-9.46,15.4-16.66,26.2-21.6,10.8-4.93,24.06-7.4,39.8-7.4,16.53-.26,30.26,1.94,41.2,6.6,10.93,4.67,19.6,11.8,26,21.4,6.4,9.6,10.93,21.47,13.6,35.6,2.66,14.14,4,30.67,4,49.6s-1.47,34.67-4.4,48.8c-2.94,14.14-7.74,25.94-14.4,35.4-6.67,9.47-15.4,16.47-26.2,21-10.8,4.53-24.07,6.8-39.8,6.8-16.54.26-30.27-1.8-41.2-6.2-10.94-4.4-19.6-11.33-26-20.8-6.4-9.46-10.94-21.33-13.6-35.6-2.67-14.26-4-30.73-4-49.4s1.46-34.66,4.4-48.8ZM3203.82,931.98c.53,9.34,1.8,17.34,3.8,24,2,6.67,5,11.87,9,15.6,4,3.74,9.33,5.6,16,5.6,11.2,0,18.93-5.86,23.2-17.6,4.26-11.73,6.4-31.06,6.4-58s-2.14-46.26-6.4-58c-4.27-11.73-12-17.6-23.2-17.6-6.67,0-12,1.87-16,5.6-4,3.74-7,8.94-9,15.6-2,6.67-3.27,14.67-3.8,24-.54,9.34-.8,19.47-.8,30.4s.26,21.07.8,30.4Z"/>
    <path class="cls-2" d="M3456.62,983.98c-5.87,10.67-13.47,18.27-22.8,22.8-9.34,4.53-20,6.8-32,6.8-17.6,0-31.14-4.6-40.6-13.8-9.47-9.2-14.2-24.6-14.2-46.2v-159.6h55.2v148.4c0,11.2,1.86,19,5.6,23.4,3.73,4.4,9.73,6.6,18,6.6,19.46,0,29.2-11.86,29.2-35.6v-142.8h55.2v215.2h-52.8v-25.2h-.8Z"/>
    <path class="cls-2" d="M3599.82,793.98v28.8h.8c5.6-10.4,12.4-18.73,20.4-25,8-6.26,17.73-9.4,29.2-9.4,1.6,0,3.26.07,5,.2,1.73.14,3.4.34,5,.6v52.8c-2.94-.26-5.8-.46-8.6-.6-2.8-.13-5.67-.2-8.6-.2-4.8,0-9.6.67-14.4,2-4.8,1.34-9.2,3.54-13.2,6.6-4,3.07-7.2,7.07-9.6,12-2.4,4.94-3.6,11-3.6,18.2v129.2h-55.2v-215.2h52.8Z"/>
    <path class="cls-2" d="M3720.62,945.98c0,9.34,2.46,16.87,7.4,22.6,4.93,5.74,12.06,8.6,21.4,8.6,8.53,0,15.33-2.13,20.4-6.4,5.06-4.26,7.6-10.66,7.6-19.2,0-6.93-2-12.2-6-15.8s-8.67-6.46-14-8.6l-38.8-14c-15.2-5.33-26.67-12.86-34.4-22.6-7.74-9.73-11.6-22.2-11.6-37.4,0-8.8,1.46-17.13,4.4-25,2.93-7.86,7.6-14.73,14-20.6,6.4-5.86,14.6-10.53,24.6-14,10-3.46,22.06-5.2,36.2-5.2,25.06,0,43.6,5.34,55.6,16,12,10.67,18,25.74,18,45.2v8.8h-49.6c0-11.2-1.8-19.4-5.4-24.6-3.6-5.2-9.94-7.8-19-7.8-6.94,0-13,1.94-18.2,5.8-5.2,3.87-7.8,9.67-7.8,17.4,0,5.34,1.66,10.14,5,14.4,3.33,4.27,9.66,7.87,19,10.8l33.2,11.2c17.33,5.87,29.6,13.54,36.8,23,7.2,9.47,10.8,22.34,10.8,38.6,0,11.47-2,21.4-6,29.8-4,8.4-9.54,15.4-16.6,21-7.07,5.6-15.47,9.6-25.2,12-9.74,2.4-20.47,3.6-32.2,3.6-15.47,0-28.34-1.47-38.6-4.4-10.27-2.93-18.4-7.33-24.4-13.2-6-5.86-10.2-13-12.6-21.4s-3.6-17.8-3.6-28.2v-7.6h49.6v7.2Z"/>
    <path class="cls-2" d="M3905.01,927.18c0,6.4.46,12.6,1.4,18.6.93,6,2.46,11.34,4.6,16,2.13,4.67,4.93,8.4,8.4,11.2,3.46,2.8,7.73,4.2,12.8,4.2,9.33,0,16.13-3.33,20.4-10,4.26-6.66,7.2-16.8,8.8-30.4h49.6c-1.07,25.07-7.74,44.14-20,57.2-12.27,13.07-31.6,19.6-58,19.6-20,0-35.6-3.34-46.8-10-11.2-6.66-19.47-15.46-24.8-26.4-5.34-10.93-8.6-23.2-9.8-36.8-1.2-13.6-1.8-27.2-1.8-40.8,0-14.4,1-28.26,3-41.6,2-13.33,6-25.2,12-35.6,6-10.4,14.6-18.66,25.8-24.8,11.2-6.13,26.13-9.2,44.8-9.2,16,0,29.13,2.6,39.4,7.8,10.26,5.2,18.33,12.54,24.2,22,5.86,9.47,9.86,20.94,12,34.4,2.13,13.47,3.2,28.47,3.2,45v12.4h-109.2v17.2ZM3959.81,855.38c-.8-6.26-2.2-11.6-4.2-16-2-4.4-4.8-7.73-8.4-10-3.6-2.26-8.2-3.4-13.8-3.4s-10.2,1.27-13.8,3.8c-3.6,2.54-6.47,5.87-8.6,10-2.14,4.14-3.67,8.74-4.6,13.8-.94,5.07-1.4,10.14-1.4,15.2v8.4h56.4c-.27-8.26-.8-15.53-1.6-21.8Z"/>
    <path class="cls-2" d="M2369.04,1174.58c14.66,0,27,2.47,37,7.4,10,4.94,18.06,11.4,24.2,19.4,6.13,8,10.53,17.14,13.2,27.4,2.66,10.27,4,20.74,4,31.4,0,14.67-2.2,27.47-6.6,38.4-4.4,10.94-10.54,19.87-18.4,26.8-7.87,6.94-17.4,12.14-28.6,15.6-11.2,3.47-23.6,5.2-37.2,5.2h-30.8v114h-57.6v-285.6h100.8ZM2351.44,1303.78c11.46,0,20.73-3.46,27.8-10.4,7.06-6.93,10.6-17.73,10.6-32.4s-3.07-25.33-9.2-32.8c-6.14-7.46-16.4-11.2-30.8-11.2h-24v86.8h25.6Z"/>
    <path class="cls-2" d="M2531.43,1174.58v285.6h-55.2v-285.6h55.2Z"/>
    <path class="cls-2" d="M2569.83,1305.78c0-12.53,2-23,6-31.4,4-8.4,9.4-15.2,16.2-20.4,6.8-5.2,14.8-8.93,24-11.2,9.2-2.26,19-3.4,29.4-3.4,16.53,0,29.86,1.6,40,4.8,10.13,3.2,18,7.74,23.6,13.6,5.6,5.87,9.4,12.87,11.4,21,2,8.14,3,17,3,26.6v113.2c0,10.14.46,18,1.4,23.6.93,5.6,2.73,11.6,5.4,18h-52.8c-1.87-3.46-3.27-7.13-4.2-11-.94-3.86-1.8-7.66-2.6-11.4h-.8c-6.4,11.2-13.8,18.47-22.2,21.8-8.4,3.33-19.27,5-32.6,5-9.6,0-17.74-1.67-24.4-5-6.67-3.33-12-7.93-16-13.8-4-5.86-6.94-12.46-8.8-19.8-1.87-7.33-2.8-14.6-2.8-21.8,0-10.13,1.06-18.86,3.2-26.2,2.13-7.33,5.4-13.6,9.8-18.8s10-9.53,16.8-13c6.8-3.46,15-6.53,24.6-9.2l31.2-8.4c8.26-2.13,14-5.06,17.2-8.8,3.2-3.73,4.8-9.2,4.8-16.4,0-8.26-1.94-14.73-5.8-19.4-3.87-4.66-10.47-7-19.8-7-8.54,0-14.94,2.54-19.2,7.6-4.27,5.07-6.4,11.87-6.4,20.4v6h-49.6v-5.2ZM2658.63,1359.58c-4.27,1.74-8.14,3-11.6,3.8-11.2,2.4-19.2,6.4-24,12-4.8,5.6-7.2,13.2-7.2,22.8,0,8.27,1.6,15.34,4.8,21.2,3.2,5.87,8.53,8.8,16,8.8,3.73,0,7.6-.6,11.6-1.8s7.66-3.13,11-5.8c3.33-2.66,6.06-6.13,8.2-10.4,2.13-4.26,3.2-9.33,3.2-15.2v-42.4c-3.74,2.94-7.74,5.27-12,7Z"/>
    <path class="cls-2" d="M2815.42,1244.98v25.2h.8c5.86-10.66,13.46-18.46,22.8-23.4,9.33-4.93,20-7.4,32-7.4,17.6,0,31.13,4.8,40.6,14.4,9.46,9.6,14.2,25.2,14.2,46.8v159.6h-55.2v-148.4c0-11.2-1.87-19-5.6-23.4-3.74-4.4-9.74-6.6-18-6.6-19.47,0-29.2,11.87-29.2,35.6v142.8h-55.2v-215.2h52.8Z"/>
    <path class="cls-2" d="M3015.42,1244.98v25.2h.8c5.86-10.66,13.46-18.46,22.8-23.4,9.33-4.93,20-7.4,32-7.4,17.6,0,31.13,4.8,40.6,14.4,9.46,9.6,14.2,25.2,14.2,46.8v159.6h-55.2v-148.4c0-11.2-1.87-19-5.6-23.4-3.74-4.4-9.74-6.6-18-6.6-19.47,0-29.2,11.87-29.2,35.6v142.8h-55.2v-215.2h52.8Z"/>
    <path class="cls-2" d="M3219.83,1171.38v47.2h-55.2v-47.2h55.2ZM3219.83,1244.98v215.2h-55.2v-215.2h55.2Z"/>
    <path class="cls-2" d="M3311.42,1244.98v25.2h.8c5.86-10.66,13.46-18.46,22.8-23.4,9.33-4.93,20-7.4,32-7.4,17.6,0,31.13,4.8,40.6,14.4,9.46,9.6,14.2,25.2,14.2,46.8v159.6h-55.2v-148.4c0-11.2-1.87-19-5.6-23.4-3.74-4.4-9.74-6.6-18-6.6-19.47,0-29.2,11.87-29.2,35.6v142.8h-55.2v-215.2h52.8Z"/>
    <path class="cls-2" d="M3619.82,1449.38c0,27.73-6.87,48.53-20.6,62.4-13.74,13.86-36.74,20.8-69,20.8-23.47,0-41.54-5-54.2-15-12.67-10-19-24.2-19-42.6h52.8c0,6.93,2.8,12.4,8.4,16.4,2.66,1.86,5.53,3.33,8.6,4.4,3.06,1.06,6.33,1.6,9.8,1.6,11.2,0,19.06-3.6,23.6-10.8,4.53-7.2,6.8-16.14,6.8-26.8v-28.4h-.8c-5.6,8-12.47,14.4-20.6,19.2-8.14,4.8-16.6,7.2-25.4,7.2-21.87,0-38.34-8.33-49.4-25-11.07-16.66-16.6-44.6-16.6-83.8,0-12.53.73-25.33,2.2-38.4,1.46-13.06,4.53-24.86,9.2-35.4,4.66-10.53,11.46-19.13,20.4-25.8,8.93-6.66,20.86-10,35.8-10,7.73,0,15.73,2.14,24,6.4,8.26,4.27,15.06,12,20.4,23.2h.8v-24h52.8v204.4ZM3510.42,1380.58c.66,6.67,2,12.6,4,17.8s4.8,9.34,8.4,12.4c3.6,3.07,8.33,4.6,14.2,4.6s10.73-1.53,14.6-4.6c3.86-3.06,6.93-7.26,9.2-12.6,2.26-5.33,3.86-11.8,4.8-19.4.93-7.6,1.4-15.93,1.4-25,0-26.13-2.07-44.66-6.2-55.6-4.14-10.93-11.67-16.4-22.6-16.4-6.14,0-11.07,1.34-14.8,4-3.74,2.67-6.67,7-8.8,13-2.14,6-3.54,14-4.2,24-.67,10-1,22.2-1,36.6,0,7.47.33,14.54,1,21.2Z"/>
    <path class="cls-2" d="M3738.62,1282.58v-37.6h28v-24.4c0-9.6,1.33-17.73,4-24.4,2.66-6.66,6.46-12,11.4-16,4.93-4,11-6.86,18.2-8.6,7.2-1.73,15.2-2.6,24-2.6,9.86,0,19.73.4,29.6,1.2v39.2c-1.34-.26-3.2-.4-5.6-.4h-5.2c-7.74,0-13.2,1.34-16.4,4-3.2,2.67-4.8,7.07-4.8,13.2v18.8h32v37.6h-32v177.6h-55.2v-177.6h-28Z"/>
    <path class="cls-2" d="M3870.21,1303.78c2.93-14.13,7.73-25.93,14.4-35.4,6.66-9.46,15.4-16.66,26.2-21.6,10.8-4.93,24.06-7.4,39.8-7.4,16.53-.26,30.26,1.94,41.2,6.6,10.93,4.67,19.6,11.8,26,21.4,6.4,9.6,10.93,21.47,13.6,35.6,2.66,14.14,4,30.67,4,49.6s-1.47,34.67-4.4,48.8c-2.94,14.14-7.74,25.94-14.4,35.4-6.67,9.47-15.4,16.47-26.2,21s-24.07,6.8-39.8,6.8c-16.54.26-30.27-1.8-41.2-6.2-10.94-4.4-19.6-11.33-26-20.8-6.4-9.46-10.94-21.33-13.6-35.6-2.67-14.26-4-30.73-4-49.4s1.46-34.66,4.4-48.8ZM3921.81,1382.98c.53,9.34,1.8,17.34,3.8,24,2,6.67,5,11.87,9,15.6,4,3.74,9.33,5.6,16,5.6,11.2,0,18.93-5.86,23.2-17.6,4.26-11.73,6.4-31.06,6.4-58s-2.14-46.26-6.4-58c-4.27-11.73-12-17.6-23.2-17.6-6.67,0-12,1.87-16,5.6-4,3.74-7,8.94-9,15.6-2,6.67-3.27,14.67-3.8,24-.54,9.34-.8,19.47-.8,30.4s.26,21.07.8,30.4Z"/>
    <path class="cls-2" d="M4117.81,1244.98v28.8h.8c5.6-10.4,12.4-18.73,20.4-25,8-6.26,17.73-9.4,29.2-9.4,1.6,0,3.26.07,5,.2,1.73.14,3.4.34,5,.6v52.8c-2.94-.26-5.8-.46-8.6-.6-2.8-.13-5.67-.2-8.6-.2-4.8,0-9.6.67-14.4,2-4.8,1.34-9.2,3.54-13.2,6.6-4,3.07-7.2,7.07-9.6,12-2.4,4.94-3.6,11-3.6,18.2v129.2h-55.2v-215.2h52.8Z"/>
    <path class="cls-2" d="M2374.64,1625.58c24,0,42.66,6.07,56,18.2,13.33,12.14,20,30.6,20,55.4,0,19.2-3.87,34.87-11.6,47-7.74,12.14-19.74,19.94-36,23.4v.8c14.4,2.14,24.93,6.8,31.6,14,6.66,7.2,10.8,18.8,12.4,34.8.53,5.34.93,11.14,1.2,17.4.26,6.27.53,13.27.8,21,.53,15.2,1.33,26.8,2.4,34.8,1.6,8,5.06,13.47,10.4,16.4v2.4h-62.4c-2.94-4-4.8-8.6-5.6-13.8-.8-5.2-1.34-10.6-1.6-16.2l-1.6-54.8c-.54-11.2-3.34-20-8.4-26.4-5.07-6.4-13.6-9.6-25.6-9.6h-30.8v120.8h-57.6v-285.6h106.4ZM2349.83,1750.38c13.86,0,24.53-3.26,32-9.8,7.46-6.53,11.2-17.53,11.2-33,0-26.4-13.34-39.6-40-39.6h-27.2v82.4h24Z"/>
    <path class="cls-2" d="M2486.24,1754.78c2.93-14.13,7.73-25.93,14.4-35.4,6.66-9.46,15.4-16.66,26.2-21.6,10.8-4.93,24.06-7.4,39.8-7.4,16.53-.26,30.26,1.94,41.2,6.6,10.93,4.67,19.6,11.8,26,21.4,6.4,9.6,10.93,21.47,13.6,35.6,2.66,14.14,4,30.67,4,49.6s-1.47,34.67-4.4,48.8c-2.94,14.14-7.74,25.94-14.4,35.4-6.67,9.47-15.4,16.47-26.2,21-10.8,4.53-24.07,6.8-39.8,6.8-16.54.26-30.27-1.8-41.2-6.2-10.94-4.4-19.6-11.33-26-20.8-6.4-9.46-10.94-21.33-13.6-35.6-2.67-14.26-4-30.73-4-49.4s1.46-34.66,4.4-48.8ZM2537.83,1833.98c.53,9.34,1.8,17.34,3.8,24,2,6.67,5,11.87,9,15.6,4,3.74,9.33,5.6,16,5.6,11.2,0,18.93-5.86,23.2-17.6,4.26-11.73,6.4-31.06,6.4-58s-2.14-46.26-6.4-58c-4.27-11.73-12-17.6-23.2-17.6-6.67,0-12,1.87-16,5.6-4,3.74-7,8.94-9,15.6-2,6.67-3.27,14.67-3.8,24-.54,9.34-.8,19.47-.8,30.4s.26,21.07.8,30.4Z"/>
    <path class="cls-2" d="M2736.23,1625.58v90.4h.8c5.86-8.53,12.46-14.93,19.8-19.2,7.33-4.26,16.2-6.4,26.6-6.4,22.66,0,39.33,8.87,50,26.6,10.66,17.74,16,46.6,16,86.6s-5.34,68.67-16,86c-10.67,17.34-27.34,26-50,26-11.2,0-20.6-2-28.2-6-7.6-4-14.47-11.06-20.6-21.2h-.8v22.8h-52.8v-285.6h55.2ZM2741.63,1856.58c3.6,11.87,11.53,17.8,23.8,17.8s19.8-5.93,23.4-17.8c3.6-11.86,5.4-29.53,5.4-53s-1.8-41.13-5.4-53c-3.6-11.86-11.4-17.8-23.4-17.8s-20.2,5.94-23.8,17.8c-3.6,11.87-5.4,29.54-5.4,53s1.8,41.14,5.4,53Z"/>
    <path class="cls-2" d="M2878.23,1754.78c2.93-14.13,7.73-25.93,14.4-35.4,6.66-9.46,15.4-16.66,26.2-21.6,10.8-4.93,24.06-7.4,39.8-7.4,16.53-.26,30.26,1.94,41.2,6.6,10.93,4.67,19.6,11.8,26,21.4,6.4,9.6,10.93,21.47,13.6,35.6,2.66,14.14,4,30.67,4,49.6s-1.47,34.67-4.4,48.8c-2.94,14.14-7.74,25.94-14.4,35.4-6.67,9.47-15.4,16.47-26.2,21s-24.07,6.8-39.8,6.8c-16.54.26-30.27-1.8-41.2-6.2-10.94-4.4-19.6-11.33-26-20.8-6.4-9.46-10.94-21.33-13.6-35.6-2.67-14.26-4-30.73-4-49.4s1.46-34.66,4.4-48.8ZM2929.83,1833.98c.53,9.34,1.8,17.34,3.8,24,2,6.67,5,11.87,9,15.6,4,3.74,9.33,5.6,16,5.6,11.2,0,18.93-5.86,23.2-17.6,4.26-11.73,6.4-31.06,6.4-58s-2.14-46.26-6.4-58c-4.27-11.73-12-17.6-23.2-17.6-6.67,0-12,1.87-16,5.6-4,3.74-7,8.94-9,15.6-2,6.67-3.27,14.67-3.8,24-.54,9.34-.8,19.47-.8,30.4s.26,21.07.8,30.4Z"/>
    <path class="cls-2" d="M3140.23,1634.38v61.6h32v37.6h-32v116.4c0,8.54,1.26,14.6,3.8,18.2,2.53,3.6,7.8,5.4,15.8,5.4,2.13,0,4.26-.06,6.4-.2,2.13-.13,4.13-.33,6-.6v38.4c-6.14,0-12.07.2-17.8.6-5.74.4-11.8.6-18.2.6-10.67,0-19.4-.74-26.2-2.2-6.8-1.46-12-4.4-15.6-8.8-3.6-4.4-6.07-10.2-7.4-17.4-1.34-7.2-2-16.26-2-27.2v-123.2h-28v-37.6h28v-61.6h55.2Z"/>
    <path class="cls-2" d="M3248.63,1622.38v47.2h-55.2v-47.2h55.2ZM3248.63,1695.98v215.2h-55.2v-215.2h55.2Z"/>
    <path class="cls-2" d="M3390.02,1757.98c-.67-5.06-1.87-9.66-3.6-13.8-1.74-4.13-4.2-7.46-7.4-10-3.2-2.53-7.47-3.8-12.8-3.8-6.67,0-12.14,1.54-16.4,4.6-4.27,3.07-7.47,7.6-9.6,13.6-2.14,6-3.6,13.6-4.4,22.8-.8,9.2-1.2,20.07-1.2,32.6,0,13.34.4,24.74,1.2,34.2.8,9.47,2.26,17.27,4.4,23.4,2.13,6.14,5.13,10.6,9,13.4,3.86,2.8,8.86,4.2,15,4.2,9.33,0,16.13-4,20.4-12,4.26-8,6.4-20.8,6.4-38.4h52.8c0,28.27-6.34,49.8-19,64.6-12.67,14.8-33.67,22.2-63,22.2-13.87,0-25.94-1.67-36.2-5-10.27-3.33-18.8-9.33-25.6-18-6.8-8.66-11.94-20.26-15.4-34.8-3.47-14.53-5.2-32.6-5.2-54.2s2.13-40.46,6.4-55c4.26-14.53,10.26-26.13,18-34.8,7.73-8.66,16.93-14.73,27.6-18.2,10.66-3.46,22.4-5.2,35.2-5.2,25.6,0,44.86,7.47,57.8,22.4,12.93,14.94,19.4,35.2,19.4,60.8h-52.8c0-5.33-.34-10.53-1-15.6Z"/>
    <path class="cls-2" d="M3513.02,1847.98c0,9.34,2.46,16.87,7.4,22.6,4.93,5.74,12.06,8.6,21.4,8.6,8.53,0,15.33-2.13,20.4-6.4,5.06-4.26,7.6-10.66,7.6-19.2,0-6.93-2-12.2-6-15.8-4-3.6-8.67-6.46-14-8.6l-38.8-14c-15.2-5.33-26.67-12.86-34.4-22.6-7.74-9.73-11.6-22.2-11.6-37.4,0-8.8,1.46-17.13,4.4-25,2.93-7.86,7.6-14.73,14-20.6,6.4-5.86,14.6-10.53,24.6-14,10-3.46,22.06-5.2,36.2-5.2,25.06,0,43.6,5.34,55.6,16,12,10.67,18,25.74,18,45.2v8.8h-49.6c0-11.2-1.8-19.4-5.4-24.6-3.6-5.2-9.94-7.8-19-7.8-6.94,0-13,1.94-18.2,5.8-5.2,3.87-7.8,9.67-7.8,17.4,0,5.34,1.66,10.14,5,14.4,3.33,4.27,9.66,7.87,19,10.8l33.2,11.2c17.33,5.87,29.6,13.54,36.8,23,7.2,9.47,10.8,22.34,10.8,38.6,0,11.47-2,21.4-6,29.8-4,8.4-9.54,15.4-16.6,21-7.07,5.6-15.47,9.6-25.2,12-9.74,2.4-20.47,3.6-32.2,3.6-15.47,0-28.34-1.47-38.6-4.4-10.27-2.93-18.4-7.33-24.4-13.2-6-5.86-10.2-13-12.6-21.4-2.4-8.4-3.6-17.8-3.6-28.2v-7.6h49.6v7.2Z"/>
  </g>
</svg>