<?xml version="1.0" encoding="UTF-8"?>
<svg id="Layer_1" data-name="Layer 1" xmlns="http://www.w3.org/2000/svg" xmlns:xlink="http://www.w3.org/1999/xlink" viewBox="0 0 1125.86 200">
  <defs>
    <style>
      .cls-1, .cls-2, .cls-3, .cls-4, .cls-5, .cls-6, .cls-7, .cls-8, .cls-9, .cls-10 {
        fill: none;
      }

      .cls-2 {
        stroke-miterlimit: 10;
      }

      .cls-2, .cls-3, .cls-4, .cls-5, .cls-6, .cls-8, .cls-9, .cls-10 {
        stroke: #231f20;
      }

      .cls-11 {
        fill: #58595b;
      }

      .cls-12 {
        fill: #231f20;
      }

      .cls-3 {
        stroke-width: 4.61px;
      }

      .cls-3, .cls-4, .cls-5, .cls-6 {
        stroke-linejoin: round;
      }

      .cls-3, .cls-4, .cls-5, .cls-6, .cls-10 {
        stroke-linecap: round;
      }

      .cls-4 {
        stroke-width: 3.52px;
      }

      .cls-5 {
        stroke-width: 5.71px;
      }

      .cls-6 {
        stroke-width: 6.87px;
      }

      .cls-13 {
        fill: #414042;
      }

      .cls-7 {
        stroke: #000;
        stroke-width: 1.1px;
      }

      .cls-14 {
        clip-path: url(#clippath-17);
      }

      .cls-15 {
        clip-path: url(#clippath-19);
      }

      .cls-16 {
        clip-path: url(#clippath-11);
      }

      .cls-17 {
        clip-path: url(#clippath-16);
      }

      .cls-18 {
        clip-path: url(#clippath-18);
      }

      .cls-19 {
        clip-path: url(#clippath-10);
      }

      .cls-20 {
        clip-path: url(#clippath-15);
      }

      .cls-21 {
        clip-path: url(#clippath-13);
      }

      .cls-22 {
        clip-path: url(#clippath-14);
      }

      .cls-23 {
        clip-path: url(#clippath-12);
      }

      .cls-24 {
        clip-path: url(#clippath-31);
      }

      .cls-25 {
        clip-path: url(#clippath-32);
      }

      .cls-26 {
        clip-path: url(#clippath-33);
      }

      .cls-27 {
        clip-path: url(#clippath-35);
      }

      .cls-28 {
        clip-path: url(#clippath-30);
      }

      .cls-29 {
        clip-path: url(#clippath-36);
      }

      .cls-30 {
        clip-path: url(#clippath-37);
      }

      .cls-31 {
        clip-path: url(#clippath-38);
      }

      .cls-32 {
        clip-path: url(#clippath-27);
      }

      .cls-33 {
        clip-path: url(#clippath-29);
      }

      .cls-34 {
        clip-path: url(#clippath-26);
      }

      .cls-35 {
        clip-path: url(#clippath-28);
      }

      .cls-36 {
        clip-path: url(#clippath-20);
      }

      .cls-37 {
        clip-path: url(#clippath-21);
      }

      .cls-38 {
        clip-path: url(#clippath-22);
      }

      .cls-39 {
        clip-path: url(#clippath-23);
      }

      .cls-40 {
        clip-path: url(#clippath-24);
      }

      .cls-41 {
        clip-path: url(#clippath-25);
      }

      .cls-42 {
        fill: #f1f2f2;
      }

      .cls-43 {
        clip-path: url(#clippath-1);
      }

      .cls-44 {
        clip-path: url(#clippath-3);
      }

      .cls-45 {
        clip-path: url(#clippath-4);
      }

      .cls-46 {
        clip-path: url(#clippath-2);
      }

      .cls-47 {
        clip-path: url(#clippath-7);
      }

      .cls-48 {
        clip-path: url(#clippath-6);
      }

      .cls-49 {
        clip-path: url(#clippath-9);
      }

      .cls-50 {
        clip-path: url(#clippath-8);
      }

      .cls-51 {
        clip-path: url(#clippath-5);
      }

      .cls-52 {
        fill: #fff;
      }

      .cls-53 {
        opacity: .85;
      }

      .cls-54 {
        opacity: .6;
      }

      .cls-55 {
        opacity: .55;
      }

      .cls-56 {
        opacity: .22;
      }

      .cls-8 {
        stroke-width: .77px;
      }

      .cls-57 {
        clip-path: url(#clippath);
      }

      .cls-10 {
        stroke-width: 2.86px;
      }
    </style>
    <clipPath id="clippath">
      <rect class="cls-1" x="34.84" y="44.63" width="230.91" height="109.88"/>
    </clipPath>
    <clipPath id="clippath-1">
      <rect class="cls-1" x="34.84" y="44.63" width="230.91" height="109.88"/>
    </clipPath>
    <clipPath id="clippath-2">
      <rect class="cls-1" x="34.84" y="44.63" width="230.91" height="109.88"/>
    </clipPath>
    <clipPath id="clippath-3">
      <rect class="cls-1" x="55.83" y="53.6" width="7.47" height="7.47"/>
    </clipPath>
    <clipPath id="clippath-4">
      <rect class="cls-1" x="64.07" y="53.6" width="7.47" height="7.47"/>
    </clipPath>
    <clipPath id="clippath-5">
      <rect class="cls-1" x="72.31" y="53.6" width="7.47" height="7.47"/>
    </clipPath>
    <clipPath id="clippath-6">
      <rect class="cls-1" x="80.55" y="53.6" width="7.47" height="7.47"/>
    </clipPath>
    <clipPath id="clippath-7">
      <rect class="cls-1" x="47.59" y="61.85" width="7.47" height="7.47"/>
    </clipPath>
    <clipPath id="clippath-8">
      <rect class="cls-1" x="55.83" y="61.85" width="7.47" height="7.47"/>
    </clipPath>
    <clipPath id="clippath-9">
      <rect class="cls-1" x="64.07" y="61.85" width="7.47" height="7.47"/>
    </clipPath>
    <clipPath id="clippath-10">
      <rect class="cls-1" x="72.31" y="61.85" width="7.47" height="7.47"/>
    </clipPath>
    <clipPath id="clippath-11">
      <rect class="cls-1" x="80.55" y="61.85" width="7.47" height="7.47"/>
    </clipPath>
    <clipPath id="clippath-12">
      <rect class="cls-1" x="47.59" y="70.09" width="7.47" height="7.47"/>
    </clipPath>
    <clipPath id="clippath-13">
      <rect class="cls-1" x="55.83" y="70.09" width="7.47" height="7.47"/>
    </clipPath>
    <clipPath id="clippath-14">
      <rect class="cls-1" x="64.07" y="70.09" width="7.47" height="7.47"/>
    </clipPath>
    <clipPath id="clippath-15">
      <rect class="cls-1" x="72.31" y="70.09" width="7.47" height="7.47"/>
    </clipPath>
    <clipPath id="clippath-16">
      <rect class="cls-1" x="80.55" y="70.09" width="7.47" height="7.47"/>
    </clipPath>
    <clipPath id="clippath-17">
      <rect class="cls-1" x="47.59" y="78.33" width="7.47" height="7.47"/>
    </clipPath>
    <clipPath id="clippath-18">
      <rect class="cls-1" x="55.83" y="78.33" width="7.47" height="7.47"/>
    </clipPath>
    <clipPath id="clippath-19">
      <rect class="cls-1" x="64.07" y="78.33" width="7.47" height="7.47"/>
    </clipPath>
    <clipPath id="clippath-20">
      <rect class="cls-1" x="72.31" y="78.33" width="7.47" height="7.47"/>
    </clipPath>
    <clipPath id="clippath-21">
      <rect class="cls-1" x="80.55" y="78.33" width="7.47" height="7.47"/>
    </clipPath>
    <clipPath id="clippath-22">
      <rect class="cls-1" x="47.59" y="86.57" width="7.47" height="7.47"/>
    </clipPath>
    <clipPath id="clippath-23">
      <rect class="cls-1" x="55.83" y="86.57" width="7.47" height="7.47"/>
    </clipPath>
    <clipPath id="clippath-24">
      <rect class="cls-1" x="64.07" y="86.57" width="7.47" height="7.47"/>
    </clipPath>
    <clipPath id="clippath-25">
      <rect class="cls-1" x="72.31" y="86.57" width="7.47" height="7.47"/>
    </clipPath>
    <clipPath id="clippath-26">
      <rect class="cls-1" x="49.92" y="106.82" width="17.09" height="11.9"/>
    </clipPath>
    <clipPath id="clippath-27">
      <rect class="cls-1" x="49.97" y="117.78" width="17" height="9.76"/>
    </clipPath>
    <clipPath id="clippath-28">
      <rect class="cls-1" x="49.75" y="117.99" width="17.43" height="29.12"/>
    </clipPath>
    <clipPath id="clippath-29">
      <rect class="cls-1" x="49.75" y="107.01" width="17.43" height="29.12"/>
    </clipPath>
    <clipPath id="clippath-30">
      <rect class="cls-1" x="49.92" y="135.39" width="17.09" height="11.9"/>
    </clipPath>
    <clipPath id="clippath-31">
      <polyline class="cls-1" points="83.61 127.41 83.61 106.93 66.28 106.93 66.28 127.41"/>
    </clipPath>
    <clipPath id="clippath-32">
      <rect class="cls-1" x="66.28" y="126.71" width="17.33" height="20.48"/>
    </clipPath>
    <clipPath id="clippath-33">
      <rect class="cls-1" x="49.88" y="126.4" width="17.18" height="10.1"/>
    </clipPath>
    <clipPath id="clippath-35">
      <rect class="cls-1" x="46.54" y="114.59" width="7.36" height="7.36"/>
    </clipPath>
    <clipPath id="clippath-36">
      <rect class="cls-1" x="63.03" y="103.6" width="7.36" height="7.36"/>
    </clipPath>
    <clipPath id="clippath-37">
      <rect class="cls-1" x="63.03" y="143.15" width="7.36" height="7.36"/>
    </clipPath>
    <clipPath id="clippath-38">
      <rect class="cls-1" x="125.38" y="58.66" width="8.79" height="4.18"/>
    </clipPath>
  </defs>
  <g>
    <path class="cls-52" d="M960.16,149.52h9.6v-20.12h5.13c3.86,0,5.53,2.27,5.67,6l.27,9.13c.07,1.86.27,3.66,1.2,5h10.39v-.4c-1.8-.93-2.06-3.53-2.13-8.53-.13-10.06-1.13-13.66-7.66-14.53v-.13c5.4-1.13,7.93-5.4,7.93-11.73,0-8.13-4.8-12.26-12.66-12.26h-17.72v47.57ZM969.76,109.01h4.53c4.33,0,6.66,2.2,6.66,6.6,0,5.13-2.6,7.13-7.2,7.13h-4v-13.73Z"/>
    <path class="cls-52" d="M818.71,101.95v33.18c0,12.73,7.4,15.33,15.19,15.33s15.19-3.2,15.19-15.33v-33.18h-9.59v33.18c0,4.73-1.13,8.26-5.6,8.26s-5.6-3.53-5.6-8.26v-33.18h-9.59Z"/>
    <polygon class="cls-52" points="851.44 101.95 851.44 149.52 860.24 149.52 860.24 116.21 860.37 116.21 872.1 149.52 883.02 149.52 883.02 101.95 874.23 101.95 874.23 134.53 874.1 134.53 862.5 101.95 851.44 101.95"/>
    <rect class="cls-52" x="885.49" y="101.95" width="9.59" height="47.57"/>
    <polygon class="cls-52" points="895.74 101.95 906.67 149.52 919 149.52 929.92 101.95 919.99 101.95 912.93 137.13 912.74 137.13 906.01 101.95 895.74 101.95"/>
    <polygon class="cls-52" points="930.78 101.95 930.78 149.52 958.03 149.52 958.03 141.66 940.37 141.66 940.37 128.87 956.36 128.87 956.36 121 940.37 121 940.37 109.81 957.36 109.81 957.36 101.95 930.78 101.95"/>
    <path class="cls-52" d="M991.34,134.66v1.93c0,8.8,4.26,13.86,15.13,13.86s16.52-4.53,16.52-14.59c0-5.8-1.87-9.46-9.06-12.59l-7.39-3.2c-4.07-1.73-4.93-3.53-4.93-6.46s1.13-5.53,5.46-5.53c3.66,0,5.2,2.6,5.2,7.06h9.19v-1.33c0-9.13-6.2-12.79-14.73-12.79-9.06,0-14.72,4.73-14.72,13.99,0,7.93,3.93,11.46,12.46,14.39,6.33,2.2,8.53,3.8,8.53,8.13,0,4-2.8,5.86-5.73,5.86-5.06,0-6.33-2.86-6.33-7.33v-1.4h-9.59Z"/>
    <rect class="cls-52" x="1024.24" y="101.95" width="9.59" height="47.57"/>
    <polygon class="cls-52" points="1083.67 101.95 1077.01 120.34 1076.87 120.34 1070.61 101.95 1035.1 101.95 1035.1 109.81 1045.49 109.81 1045.49 149.52 1055.08 149.52 1055.08 109.81 1063.18 109.81 1072.14 130.8 1072.14 149.52 1081.74 149.52 1081.74 130.8 1094.07 101.95 1083.67 101.95"/>
    <path class="cls-52" d="M734.43,97.62h-15.9v-47.78h26.07c7.07,0,13.16,4.57,15.16,10.64,1.84,5.62.27,11.73-3.89,16.08.55,1.5,1.09,2.67,1.6,4.01,1.15,2.66,2.21,5.32,3.36,7.95l3.78,9.1h-16.12s-.13-.38-.26-.55c-.64-1.41-1.22-2.92-1.86-4.33l-3.88-9.2c-1.54-3.72-3.08-7.23-4.61-10.95,1.92-.05,3.35.31,5.21-.55,1.3-.64,3.27-2.23,3.33-5.29-.05-1.51-.47-2.66-1.47-3.85-1-1.11-2.46-1.93-4.35-1.96,0,0-6.18,0-6.18,0v36.65Z"/>
    <path class="cls-52" d="M900.48,49.84v47.78h-15.9v-19.48h-11.13v19.48c-2.88,0-5.99-.03-8.87,0h-7.02v-36.73h-11.12v36.73h-15.9v-36.73h-11.21v36.73h-16.38c-2.85-6.89-5.86-13.84-8.65-20.7-.32-1.44-.64-2.89-1.06-4.29v25h-16.41c-3.25-7.56-6.38-14.97-9.62-22.65-1.12-2.66-2.04-4.82-3.21-7.59l-.16-.36-2.53-5.93-3.62-8.47c-.32-.96-.83-1.83-1.15-2.79h16.37c3.36,8.17,6.76,16.25,10.29,24.29l.1.19c-.13-.93-.42-2.12-.58-3.01v-14.26c.03-2.28,0-4.87,0-7.21h16.41c.21.52.32.8.48,1.22,1.92,4.52,3.75,9,5.67,13.49l4.29,9.77c-.1-1.03-.32-2.02-.45-3.01v-21.47h64.32v17.24h11.13v-17.24h15.9Z"/>
    <path class="cls-52" d="M946.6,79.62l4.62-21.48h.13l4.62,21.48h-9.37ZM914.74,79.62l4.62-21.48h.13l4.62,21.48h-9.37ZM957.24,49.84h-11.91l-9.97,37.67-9.97-37.67h-11.91l-12.65,47.79h10.04l2.21-10.11h12.72l2.21,10.11h14.72l2.21-10.11h12.72l2.21,10.11h10.04l-12.65-47.79Z"/>
    <path class="cls-52" d="M998.59,66.14c0-6.93-1-16.99-14.73-16.99s-16.19,10.26-16.19,24.72,1.8,24.72,16.19,24.72c12.59,0,15.13-8.86,15.13-19.12h-9.59c0,10.26-2.53,12.06-6,12.06-4.13,0-6.13-2.6-6.13-16.99,0-13.46,1.13-18.32,6-18.32,4.33,0,5.73,3,5.73,9.93h9.59Z"/>
    <polygon class="cls-52" points="1000.89 97.62 1010.52 97.62 1010.52 76.41 1021.77 76.41 1021.77 97.62 1031.4 97.62 1031.4 49.84 1021.77 49.84 1021.77 68.11 1010.52 68.11 1010.52 49.84 1000.89 49.84 1000.89 97.62"/>
    <polygon class="cls-52" points="1033.49 49.83 1033.49 97.62 1060.87 97.62 1060.87 89.73 1043.13 89.73 1043.13 76.87 1059.2 76.87 1059.2 68.97 1043.13 68.97 1043.13 57.73 1060.2 57.73 1060.2 49.83 1033.49 49.83"/>
    <polygon class="cls-52" points="1062.3 49.84 1062.3 97.62 1071.14 97.62 1071.14 64.16 1071.27 64.16 1083.05 97.62 1094.02 97.62 1094.02 49.84 1085.19 49.84 1085.19 82.56 1085.06 82.56 1073.41 49.84 1062.3 49.84"/>
    <rect class="cls-52" x="686.13" y="49.77" width="2.21" height="100.14"/>
    <rect class="cls-52" x="280.8" y="50.09" width="2.21" height="100.14"/>
    <path class="cls-52" d="M408.82,66.22c-.23-.33-.53-.6-.9-.81-.37-.21-.79-.31-1.28-.31-.52,0-.97.09-1.35.28-.38.19-.69.44-.94.77-.25.32-.44.7-.57,1.12-.13.42-.19.87-.19,1.33,0,.43.07.86.2,1.28.13.42.33.8.59,1.13.26.33.58.6.96.79.38.2.81.3,1.29.3.45,0,.85-.1,1.21-.3.36-.2.66-.46.92-.78.25-.32.44-.69.57-1.1.12-.41.19-.83.19-1.27s-.06-.89-.17-1.31c-.11-.42-.29-.8-.52-1.13Z"/>
    <path class="cls-52" d="M412.85,71.06c-.32.83-.77,1.56-1.35,2.18-.57.62-1.27,1.11-2.07,1.47-.81.36-1.71.54-2.69.54-1.44,0-2.62-.28-3.54-.85-.93-.57-1.66-1.31-2.22-2.24-.56-.92-.94-1.97-1.16-3.14-.22-1.17-.32-2.34-.32-3.53s.13-2.31.4-3.49c.27-1.17.7-2.23,1.29-3.17.59-.94,1.36-1.71,2.29-2.3.93-.59,2.07-.89,3.42-.89,1.63,0,3.01.45,4.12,1.36,1.11.91,1.78,2.19,1.99,3.86h-3.63c-.12-.63-.41-1.17-.86-1.64-.45-.47-1.01-.7-1.67-.7-.7,0-1.27.2-1.72.61-.45.4-.81.9-1.08,1.48-.27.58-.47,1.21-.59,1.87-.13.66-.2,1.26-.22,1.78l.05.05c.52-.75,1.13-1.29,1.83-1.61.7-.32,1.51-.49,2.42-.49.81,0,1.6.17,2.37.53.77.35,1.43.82,1.97,1.41.5.57.87,1.23,1.1,1.97.23.74.35,1.48.35,2.24,0,.97-.16,1.87-.48,2.7ZM336.94,58.8h-3.82v-3.15h3.82v3.15ZM336.94,74.87h-3.82v-13.92h3.82v13.92ZM406.42,43.27c-12.05,0-21.82,9.77-21.82,21.82,0,4.99,1.67,9.58,4.49,13.26l-18.37,17.94-18.37-17.94c2.82-3.67,4.49-8.27,4.49-13.26,0-12.05-9.77-21.82-21.82-21.82s-21.81,9.77-21.81,21.82,9.77,21.82,21.81,21.82c5.18,0,9.93-1.8,13.67-4.82l18.28,17.85-18.28,17.85c1.36,1.1,2.59,2.36,3.66,3.75l18.37-17.94,18.37,17.94c1.06-1.39,2.29-2.65,3.66-3.74l-18.28-17.85,18.28-17.85c3.74,3.01,8.5,4.82,13.67,4.82,12.05,0,21.82-9.77,21.82-21.82s-9.77-21.82-21.82-21.82Z"/>
    <path class="cls-52" d="M356.68,67.7h28.08c-.1-.86-.16-1.73-.16-2.61s.06-1.76.16-2.62h-28.08c.1.86.16,1.73.16,2.62s-.06,1.76-.16,2.61Z"/>
    <path class="cls-52" d="M413.89,144.4h-13.59v-19.22h4.23v15.67h9.37v3.55ZM345.37,144.4h-3.96v-13.62h-.05l-4.71,13.62h-3.26l-4.71-13.49h-.06v13.49h-3.96v-19.22h5.95l4.5,13.22h.05l4.25-13.22h5.95v19.22ZM409.03,113.13v-26.39c-.86.1-1.73.16-2.62.16s-1.76-.06-2.62-.16v26.39c-4.17.5-7.97,2.17-11.08,4.68-.16.13-.31.25-.46.38-.02.02-.04.03-.06.05-.14.12-.27.24-.4.36-.03.02-.05.05-.08.07-.15.13-.3.27-.44.41-.01.01-.02.02-.03.03-.13.13-.27.26-.4.4-.03.03-.05.05-.08.08-.28.29-.55.59-.81.89-.03.03-.05.06-.07.08-.26.3-.51.61-.76.93-2.33,3.03-3.89,6.69-4.37,10.68h-28.08c-.48-3.99-2.03-7.65-4.37-10.68-.25-.32-.5-.63-.76-.93-.02-.03-.05-.06-.07-.08-.26-.3-.53-.6-.81-.88-.03-.03-.06-.06-.08-.09-.13-.13-.27-.27-.4-.4,0,0-.01-.01-.02-.02-.15-.14-.29-.28-.44-.41-.03-.02-.06-.05-.08-.07-.13-.12-.27-.24-.4-.36-.02-.02-.04-.03-.05-.05-.15-.13-.31-.26-.46-.38-3.1-2.51-6.91-4.18-11.08-4.68v-26.39c-.86.1-1.73.16-2.62.16s-1.76-.06-2.62-.16v26.39c-10.82,1.29-19.2,10.5-19.2,21.66,0,12.05,9.77,21.82,21.82,21.82,11.16,0,20.37-8.39,21.66-19.2h28.08c1.29,10.81,10.5,19.2,21.66,19.2,12.05,0,21.82-9.77,21.82-21.82,0-11.16-8.39-20.37-19.2-21.66Z"/>
    <path class="cls-12" d="M333.11,60.95h3.82v13.92h-3.82v-13.92ZM336.94,58.8h-3.82v-3.15h3.82v3.15Z"/>
    <path class="cls-12" d="M406.63,65.1c-.52,0-.97.09-1.35.28-.38.19-.69.44-.94.77-.25.32-.44.7-.57,1.12-.13.42-.19.87-.19,1.33,0,.43.07.86.2,1.28.13.42.33.8.59,1.13.26.33.58.6.96.79.38.2.81.3,1.29.3.45,0,.85-.1,1.21-.3.36-.2.66-.46.92-.78.25-.32.44-.69.57-1.1.12-.41.19-.83.19-1.27s-.06-.88-.17-1.31c-.11-.42-.29-.8-.52-1.13s-.53-.6-.9-.81c-.37-.21-.79-.31-1.28-.31ZM409.38,60.88c-.13-.63-.41-1.17-.86-1.64-.45-.47-1-.7-1.67-.7-.7,0-1.28.2-1.72.61-.45.4-.81.9-1.08,1.48-.27.58-.47,1.21-.59,1.87-.12.66-.19,1.26-.21,1.78l.05.06c.52-.76,1.13-1.29,1.83-1.62.7-.32,1.51-.49,2.42-.49.81,0,1.6.17,2.37.53.77.35,1.43.82,1.97,1.41.5.57.87,1.23,1.1,1.97.23.74.35,1.48.35,2.24,0,.97-.16,1.87-.49,2.7-.32.83-.77,1.56-1.34,2.18-.57.62-1.27,1.11-2.07,1.47-.81.36-1.7.54-2.69.54-1.44,0-2.62-.28-3.54-.85-.93-.57-1.67-1.31-2.22-2.24-.56-.92-.94-1.97-1.16-3.14-.22-1.17-.32-2.34-.32-3.53s.13-2.31.4-3.49c.27-1.18.7-2.23,1.29-3.18.59-.94,1.36-1.71,2.29-2.3.93-.59,2.07-.89,3.42-.89,1.63,0,3.01.45,4.12,1.36,1.11.91,1.78,2.19,1.99,3.86h-3.63Z"/>
    <polygon class="cls-12" points="324.67 125.18 330.61 125.18 335.11 138.4 335.17 138.4 339.42 125.18 345.37 125.18 345.37 144.4 341.41 144.4 341.41 130.78 341.36 130.78 336.64 144.4 333.39 144.4 328.68 130.92 328.62 130.92 328.62 144.4 324.67 144.4 324.67 125.18"/>
    <polygon class="cls-12" points="400.29 125.18 404.52 125.18 404.52 140.85 413.89 140.85 413.89 144.4 400.29 144.4 400.29 125.18"/>
    <path class="cls-42" d="M627.06,134.15c.46.84.85,1.65,1.17,2.44.33.79.59,1.58.78,2.37.2.79.34,1.61.43,2.44.09.83.13,1.72.13,2.66s-.04,1.83-.13,2.66c-.09.83-.23,1.65-.43,2.44-.2.79-.46,1.59-.78,2.37-.32.79-.71,1.6-1.17,2.44h2.34c1.1-1.74,1.89-3.43,2.37-5.09s.72-3.26.72-4.82-.24-3.17-.72-4.82-1.27-3.35-2.37-5.09h-2.34ZM626.37,138.26c-.02-.75-.14-1.38-.38-1.89-.24-.51-.56-.92-.96-1.23-.4-.31-.86-.53-1.38-.66-.52-.13-1.07-.2-1.62-.2-1.29,0-2.3.24-3,.73-.71.49-1.23,1.13-1.56,1.93-.33.8-.53,1.72-.6,2.76-.07,1.04-.1,2.11-.1,3.21,0,.96.05,1.88.16,2.76.1.88.32,1.66.66,2.33.34.67.84,1.21,1.49,1.61.65.4,1.53.61,2.62.61,1.76,0,3.05-.48,3.85-1.44.8-.96,1.2-2.34,1.2-4.15,0-.71-.07-1.36-.21-1.95-.14-.6-.36-1.11-.66-1.55-.3-.43-.69-.77-1.18-1.02-.49-.24-1.07-.36-1.77-.36s-1.31.12-1.8.36c-.49.24-.87.57-1.14.98h-.04v-.77c0-.57.02-1.1.07-1.59.04-.49.14-.91.28-1.26.14-.35.33-.63.58-.83.25-.2.59-.3,1.02-.3.53,0,.9.16,1.11.49.22.32.32.79.32,1.41h3.05ZM620.5,142.79c.27-.46.71-.68,1.35-.68s1.06.23,1.33.68c.26.46.4,1.21.4,2.27,0,.44-.02.85-.06,1.23s-.11.7-.23.98c-.12.28-.29.5-.52.65-.23.15-.53.23-.92.23s-.67-.08-.89-.23c-.23-.15-.4-.37-.53-.64-.13-.27-.21-.6-.25-.98-.04-.38-.07-.79-.07-1.24,0-1.06.13-1.82.4-2.27ZM604.56,142.63v-.46c0-.28.03-.56.08-.84.05-.28.14-.53.25-.76.12-.23.28-.41.47-.55.2-.14.45-.21.76-.21s.56.06.76.19c.2.13.35.31.46.55.11.24.19.54.23.88.04.35.07.75.09,1.2h-3.11ZM610.59,144.44v-.68c0-.91-.06-1.74-.18-2.48-.12-.74-.34-1.38-.66-1.9-.32-.52-.77-.93-1.33-1.21-.57-.29-1.29-.43-2.18-.43-1.03,0-1.85.17-2.47.51-.62.34-1.09.79-1.42,1.37s-.55,1.23-.66,1.97c-.11.74-.17,1.5-.17,2.3,0,.74.03,1.48.1,2.24.07.76.25,1.44.54,2.05.29.61.75,1.11,1.37,1.49.62.38,1.48.57,2.58.57,1.46,0,2.52-.37,3.2-1.12.68-.74,1.04-1.81,1.1-3.19h-2.74c-.09.75-.25,1.31-.49,1.68-.24.37-.61.55-1.13.55-.28,0-.51-.08-.71-.23-.19-.15-.35-.36-.46-.62-.12-.26-.2-.55-.25-.88-.05-.33-.08-.67-.08-1.03v-.95h6.03ZM600.18,142.32c0-1.41-.35-2.53-1.07-3.36-.71-.82-1.78-1.24-3.19-1.24-.71,0-1.35.09-1.94.29-.59.19-1.1.53-1.52,1-.43.48-.76,1.12-.99,1.92-.24.8-.35,1.81-.35,3.04s.1,2.19.29,2.99c.19.8.47,1.44.85,1.92.37.48.84.82,1.41,1.03.57.21,1.23.31,2,.31,1.62,0,2.78-.42,3.48-1.26.7-.84,1.05-2.04,1.05-3.6h-2.91c0,.97-.12,1.68-.35,2.12-.24.44-.61.66-1.13.66-.34,0-.61-.08-.83-.23-.21-.15-.38-.4-.5-.74-.12-.34-.2-.77-.24-1.29-.04-.52-.07-1.15-.07-1.89,0-.68.02-1.27.07-1.79.04-.51.13-.94.24-1.27.12-.33.29-.58.52-.75.23-.17.54-.25.92-.25.28,0,.51.07.7.21.18.14.33.32.42.55.09.23.16.49.2.77s.05.57.05.85h2.91ZM580.34,149.92h3.05v-7.88c0-1.31.54-1.97,1.61-1.97.45,0,.79.12.99.36.2.24.31.67.31,1.29v8.19h3.05v-8.81c0-1.19-.26-2.05-.78-2.58-.52-.53-1.27-.79-2.24-.79-.66,0-1.25.14-1.76.41s-.93.7-1.26,1.29h-.04v-1.39h-2.91v11.88ZM572.55,142.63v-.46c0-.28.03-.56.08-.84.05-.28.14-.53.25-.76.12-.23.28-.41.47-.55.2-.14.45-.21.76-.21s.56.06.76.19c.2.13.35.31.46.55.11.24.19.54.23.88.04.35.07.75.09,1.2h-3.11ZM578.58,144.44v-.68c0-.91-.06-1.74-.18-2.48-.12-.74-.34-1.38-.66-1.9-.32-.52-.77-.93-1.34-1.21-.56-.29-1.29-.43-2.17-.43-1.03,0-1.85.17-2.47.51-.62.34-1.1.79-1.42,1.37-.33.57-.55,1.23-.67,1.97-.11.74-.16,1.5-.16,2.3,0,.74.03,1.48.1,2.24.06.76.25,1.44.54,2.05.29.61.75,1.11,1.37,1.49.62.38,1.48.57,2.58.57,1.46,0,2.53-.37,3.2-1.12.68-.74,1.05-1.81,1.11-3.19h-2.74c-.09.75-.25,1.31-.49,1.68-.24.37-.61.55-1.13.55-.28,0-.52-.08-.71-.23-.19-.15-.35-.36-.46-.62-.12-.26-.2-.55-.25-.88-.05-.33-.08-.67-.08-1.03v-.95h6.03ZM564.58,149.92h3.05v-11.88h-3.05v11.88ZM564.58,136.58h3.05v-2.61h-3.05v2.61ZM562.77,142.32c0-1.41-.36-2.53-1.07-3.36-.71-.82-1.78-1.24-3.19-1.24-.71,0-1.35.09-1.94.29-.59.19-1.1.53-1.52,1-.43.48-.76,1.12-.99,1.92-.24.8-.35,1.81-.35,3.04s.1,2.19.29,2.99c.19.8.47,1.44.85,1.92.38.48.85.82,1.41,1.03.57.21,1.24.31,2,.31,1.62,0,2.78-.42,3.48-1.26.7-.84,1.05-2.04,1.05-3.6h-2.91c0,.97-.12,1.68-.35,2.12-.24.44-.61.66-1.13.66-.34,0-.62-.08-.83-.23-.21-.15-.38-.4-.5-.74-.12-.34-.2-.77-.24-1.29-.04-.52-.07-1.15-.07-1.89,0-.68.02-1.27.07-1.79.04-.51.13-.94.24-1.27.12-.33.29-.58.52-.75.23-.17.53-.25.92-.25.28,0,.51.07.69.21.19.14.33.32.42.55.1.23.16.49.2.77.04.29.05.57.05.85h2.91ZM541.82,144.99v.64c0,1.46.39,2.59,1.16,3.39.77.8,2.06,1.2,3.85,1.2s3.07-.39,4.03-1.17c.96-.78,1.45-2,1.45-3.67,0-.49-.04-.93-.13-1.32-.09-.4-.25-.76-.47-1.09-.23-.33-.54-.64-.93-.93s-.88-.56-1.47-.83l-2.45-1.06c-.67-.28-1.12-.59-1.32-.92-.21-.33-.31-.74-.31-1.23,0-.24.03-.46.08-.68.05-.22.15-.42.29-.59.14-.17.33-.3.56-.41.24-.1.53-.15.88-.15.62,0,1.06.2,1.33.61.26.4.4.98.4,1.73h3.05v-.44c0-.75-.12-1.4-.36-1.93-.24-.54-.58-.98-1.02-1.32-.43-.35-.95-.6-1.55-.75-.6-.15-1.25-.23-1.95-.23-1.52,0-2.71.38-3.58,1.15-.87.77-1.3,1.93-1.3,3.49,0,.65.08,1.22.24,1.71.16.49.42.93.76,1.3.35.38.78.7,1.29.98.52.28,1.13.54,1.83.77.53.18.98.35,1.34.52.36.17.65.36.87.56.22.21.38.44.47.7.1.26.14.56.14.92,0,.66-.2,1.15-.58,1.47-.39.32-.83.47-1.31.47-.43,0-.77-.06-1.04-.18-.27-.12-.48-.28-.64-.49-.16-.21-.27-.46-.33-.76-.06-.3-.09-.64-.09-1v-.46h-3.18ZM529.7,149.92h3.05v-7.13c0-.4.07-.73.2-1,.13-.27.31-.49.53-.66.22-.17.46-.29.73-.36.26-.07.53-.11.8-.11.16,0,.32,0,.47.01.15,0,.31.02.47.03v-2.91c-.09-.02-.18-.03-.27-.03-.1,0-.19-.01-.28-.01-.63,0-1.17.17-1.61.52-.44.35-.82.81-1.13,1.38h-.05v-1.59h-2.91v11.88ZM521.91,142.63v-.46c0-.28.02-.56.08-.84.05-.28.13-.53.25-.76.12-.23.27-.41.47-.55.2-.14.45-.21.76-.21s.56.06.76.19c.2.13.35.31.46.55.11.24.19.54.23.88.04.35.07.75.09,1.2h-3.11ZM527.94,144.44v-.68c0-.91-.06-1.74-.18-2.48-.12-.74-.34-1.38-.66-1.9-.33-.52-.77-.93-1.34-1.21-.57-.29-1.29-.43-2.17-.43-1.03,0-1.85.17-2.47.51-.62.34-1.09.79-1.42,1.37-.33.57-.55,1.23-.66,1.97-.11.74-.16,1.5-.16,2.3,0,.74.03,1.48.1,2.24.07.76.24,1.44.54,2.05.29.61.75,1.11,1.37,1.49.62.38,1.48.57,2.58.57,1.46,0,2.53-.37,3.2-1.12.67-.74,1.04-1.81,1.1-3.19h-2.74c-.09.75-.25,1.31-.49,1.68-.24.37-.61.55-1.13.55-.28,0-.52-.08-.71-.23-.19-.15-.35-.36-.46-.62-.12-.26-.2-.55-.25-.88-.05-.33-.08-.67-.08-1.03v-.95h6.03ZM513.15,138.04h-1.55v2.08h1.55v6.8c0,.6.04,1.1.11,1.5.07.4.21.72.41.96.2.24.48.42.85.52.37.1.85.15,1.46.15.35,0,.69-.02,1-.04.31-.03.64-.06.98-.09v-2.12c-.11.02-.22.03-.33.03-.12,0-.24.01-.35.01-.44,0-.73-.1-.87-.3-.14-.2-.21-.53-.21-1v-6.43h1.77v-2.08h-1.77v-3.4h-3.05v3.4ZM507.33,149.92h2.92v-11.88h-3.05v7.88c0,1.31-.54,1.97-1.61,1.97-.46,0-.79-.12-.99-.36-.21-.24-.31-.67-.31-1.29v-8.19h-3.05v8.81c0,1.19.26,2.05.78,2.58.52.53,1.27.79,2.24.79.66,0,1.25-.14,1.77-.41.51-.27.93-.7,1.26-1.29h.04v1.39ZM493.41,141.05c.2-.66.64-.98,1.31-.98s1.09.33,1.29.98c.2.66.3,1.63.3,2.93s-.1,2.27-.3,2.93c-.2.66-.63.98-1.29.98s-1.11-.33-1.31-.98c-.2-.66-.3-1.63-.3-2.93s.1-2.27.3-2.93ZM490.07,153.8h3.05v-4.99h.04c.32.47.69.82,1.09,1.06.4.24.89.35,1.47.35,1.25,0,2.17-.49,2.76-1.47.59-.98.88-2.57.88-4.78s-.3-3.8-.88-4.78c-.59-.98-1.51-1.47-2.76-1.47-.62,0-1.14.12-1.56.36-.42.24-.8.64-1.14,1.2h-.04v-1.26h-2.91v15.77ZM473.22,149.92h3.05v-7.82c0-.71.14-1.22.43-1.55.29-.32.67-.49,1.16-.49.43,0,.73.13.92.4.18.26.28.65.28,1.15v8.3h3.05v-7.82c0-.71.14-1.22.43-1.55.29-.32.67-.49,1.16-.49.43,0,.73.13.92.4.18.26.28.65.28,1.15v8.3h3.05v-8.63c0-1.15-.24-2.03-.72-2.64-.48-.61-1.23-.92-2.24-.92-.72,0-1.34.16-1.87.47-.52.32-.9.79-1.14,1.42h-.04c-.16-.62-.48-1.09-.96-1.41-.48-.32-1.07-.49-1.78-.49-.66,0-1.23.12-1.71.35-.48.24-.91.62-1.29,1.17h-.04v-1.21h-2.91v11.88ZM465.17,142.3c.03-.51.1-.96.21-1.32.11-.37.27-.66.49-.86.21-.21.51-.31.89-.31.62,0,1.04.32,1.28.97.23.65.35,1.72.35,3.2s-.12,2.55-.35,3.2c-.24.65-.66.97-1.28.97-.38,0-.68-.1-.89-.31-.21-.21-.38-.49-.49-.86-.11-.37-.18-.81-.21-1.32-.03-.51-.04-1.08-.04-1.68s.01-1.16.04-1.68ZM462.3,146.72c.15.78.4,1.44.75,1.97.35.53.83.92,1.44,1.18.6.26,1.36.38,2.27.36.87,0,1.6-.14,2.2-.41.6-.27,1.08-.67,1.45-1.19.37-.52.63-1.17.79-1.95.16-.78.24-1.68.24-2.69s-.07-1.94-.22-2.73c-.15-.79-.4-1.45-.75-1.98-.35-.53-.83-.92-1.44-1.18-.61-.26-1.36-.38-2.27-.36-.87,0-1.6.14-2.2.41-.6.27-1.08.67-1.45,1.19-.37.52-.63,1.17-.79,1.95-.16.78-.24,1.68-.24,2.69s.07,1.96.22,2.74ZM460.43,139.47c0-.57-.04-1.19-.12-1.84-.08-.66-.28-1.27-.61-1.83-.32-.57-.81-1.03-1.47-1.4-.66-.37-1.55-.55-2.68-.55-1.19,0-2.14.2-2.85.61-.71.4-1.25.97-1.62,1.69-.38.72-.62,1.59-.73,2.59-.11,1.01-.17,2.11-.17,3.3s.06,2.29.17,3.3c.11,1.01.35,1.87.73,2.59.38.72.92,1.29,1.62,1.69.71.4,1.66.61,2.85.61,1.04,0,1.89-.17,2.55-.51.65-.34,1.16-.8,1.52-1.38.36-.58.61-1.25.74-2.02.13-.77.2-1.57.2-2.43h-3.18c0,.85-.05,1.54-.15,2.06-.1.52-.24.93-.42,1.21s-.39.48-.63.57c-.24.09-.51.14-.78.14-.34,0-.64-.07-.89-.21-.26-.14-.47-.41-.64-.82-.17-.4-.3-.98-.38-1.71-.08-.74-.12-1.7-.12-2.89,0-1.12.03-2.06.09-2.84.06-.77.16-1.4.31-1.88.15-.48.35-.82.61-1.04.26-.21.59-.32.98-.32.72,0,1.22.26,1.49.78.27.52.41,1.36.41,2.51h3.18ZM447.31,134.15c-1.1,1.74-1.89,3.43-2.37,5.09-.48,1.66-.72,3.26-.72,4.82s.24,3.17.72,4.82c.48,1.66,1.27,3.35,2.37,5.09h2.34c-.46-.84-.85-1.65-1.17-2.44-.32-.79-.59-1.58-.78-2.37-.2-.79-.34-1.61-.43-2.44-.09-.83-.13-1.72-.13-2.66s.04-1.83.13-2.66c.09-.83.23-1.65.43-2.44.2-.79.46-1.59.78-2.37.32-.79.71-1.6,1.17-2.44h-2.34Z"/>
    <path class="cls-42" d="M653.03,113v1.32h-.04c-.29-.62-.67-1.04-1.13-1.28-.46-.24-.9-.35-1.33-.35-.83,0-1.48.18-1.98.55-.49.37-.87.84-1.13,1.42-.26.58-.43,1.23-.51,1.95-.08.72-.12,1.43-.12,2.12,0,2.16.31,3.7.92,4.63.61.92,1.52,1.38,2.73,1.38.49,0,.95-.13,1.4-.4.45-.26.83-.62,1.14-1.06h.04v1.57c0,.62-.13,1.13-.37,1.53-.25.4-.69.61-1.3.61-.19,0-.37-.03-.54-.09-.17-.06-.33-.14-.47-.24-.31-.22-.46-.52-.46-.91h-2.91c0,1.02.35,1.8,1.05,2.35.7.55,1.69.83,2.99.83,1.78,0,3.05-.38,3.81-1.14s1.14-1.93,1.14-3.52v-11.28h-2.91ZM649.9,117.3c.04-.55.11-.99.23-1.32.12-.33.28-.57.49-.72.21-.15.48-.22.82-.22.6,0,1.02.3,1.25.91.23.6.34,1.63.34,3.07,0,.5-.03.96-.08,1.38-.05.42-.14.78-.26,1.07-.13.29-.3.53-.51.7-.22.17-.48.25-.81.25s-.58-.08-.78-.25c-.2-.17-.35-.4-.46-.68-.11-.29-.18-.61-.22-.98-.04-.37-.05-.76-.05-1.17,0-.79.02-1.47.05-2.02ZM635.91,124.88h3.05v-7.88c0-1.31.54-1.97,1.61-1.97.45,0,.79.12.99.36.21.24.31.67.31,1.29v8.19h3.05v-8.81c0-1.19-.26-2.05-.78-2.58-.52-.53-1.27-.79-2.24-.79-.66,0-1.25.14-1.77.41-.52.27-.94.7-1.26,1.29h-.04v-1.39h-2.92v11.88ZM630.65,124.88h3.05v-11.88h-3.05v11.88ZM630.65,111.55h3.05v-2.61h-3.05v2.61ZM619.44,124.88h3.05v-7.88c0-1.31.54-1.97,1.61-1.97.46,0,.79.12.99.36.2.24.31.67.31,1.29v8.19h3.05v-8.81c0-1.19-.26-2.05-.78-2.58-.52-.53-1.27-.79-2.24-.79-.66,0-1.25.14-1.76.41-.51.27-.93.7-1.26,1.29h-.04v-1.39h-2.91v11.88ZM611.39,117.27c.03-.51.1-.96.21-1.32.11-.37.27-.66.49-.86.22-.21.51-.31.89-.31.62,0,1.04.32,1.28.97.24.65.35,1.72.35,3.2s-.12,2.55-.35,3.2c-.24.65-.66.97-1.28.97-.38,0-.68-.1-.89-.31-.21-.21-.37-.49-.49-.86-.11-.37-.18-.81-.21-1.32s-.04-1.08-.04-1.68.02-1.16.04-1.68ZM608.52,121.68c.15.78.4,1.44.75,1.97.35.53.83.92,1.44,1.18.6.26,1.36.38,2.27.36.87,0,1.6-.14,2.2-.41.6-.27,1.08-.67,1.45-1.19.37-.52.63-1.17.8-1.95.16-.78.24-1.68.24-2.69s-.07-1.94-.22-2.73c-.15-.79-.4-1.45-.75-1.98-.35-.53-.83-.92-1.44-1.18-.6-.26-1.36-.38-2.27-.36-.87,0-1.6.14-2.2.41-.6.27-1.08.67-1.45,1.19-.37.52-.64,1.17-.8,1.95-.16.78-.24,1.68-.24,2.69s.07,1.96.22,2.74ZM598.21,121v.42c0,.57.07,1.09.2,1.56.13.46.36.86.69,1.19.33.33.78.59,1.34.76.56.18,1.27.26,2.14.26.64,0,1.22-.08,1.77-.23.55-.15,1.01-.39,1.4-.7.39-.31.7-.7.92-1.17s.33-1.02.33-1.63c0-.9-.2-1.61-.6-2.13-.4-.52-1.07-.95-2.03-1.27l-1.83-.62c-.51-.16-.86-.36-1.05-.6-.18-.24-.27-.5-.27-.79,0-.43.14-.75.43-.96.29-.21.62-.32,1.01-.32.5,0,.85.14,1.05.43.2.29.3.74.3,1.36h2.74v-.49c0-1.08-.33-1.91-.99-2.5-.66-.59-1.68-.88-3.07-.88-.78,0-1.45.09-2,.29-.55.19-1,.45-1.36.77-.35.32-.61.7-.77,1.14-.16.43-.24.89-.24,1.38,0,.84.22,1.53.64,2.06.43.54,1.06.95,1.9,1.25l2.14.77c.29.12.55.28.77.47.22.2.33.49.33.87,0,.47-.14.82-.42,1.06-.28.24-.66.35-1.13.35-.51,0-.91-.16-1.18-.47-.27-.32-.41-.73-.41-1.25v-.4h-2.74ZM593.54,121.28c0,.34-.06.62-.18.85-.12.23-.27.42-.45.56-.18.15-.39.25-.61.32-.22.07-.43.1-.64.1-.41,0-.71-.16-.88-.49-.18-.32-.27-.71-.27-1.17,0-.53.13-.95.4-1.26.26-.31.71-.53,1.33-.66.19-.04.41-.11.64-.21.24-.09.46-.23.66-.39v2.34ZM590.72,116.65v-.33c0-.47.12-.85.35-1.13.24-.28.59-.42,1.06-.42.52,0,.88.13,1.09.39.21.26.32.61.32,1.07,0,.4-.09.7-.26.91-.18.21-.49.37-.95.49l-1.72.46c-.53.15-.98.32-1.36.51-.37.19-.68.43-.93.72-.24.29-.42.63-.54,1.04-.12.4-.18.89-.18,1.45,0,.4.05.8.15,1.2.11.4.27.77.49,1.09.22.32.52.59.88.79.37.21.82.31,1.35.31.74,0,1.34-.1,1.8-.31.46-.21.87-.62,1.22-1.24h.04c.05.21.09.41.15.63.05.21.13.42.23.61h2.91c-.15-.35-.24-.68-.3-.99-.05-.31-.08-.74-.08-1.3v-6.25c0-.53-.06-1.02-.17-1.47-.11-.45-.32-.83-.63-1.16-.31-.32-.75-.57-1.31-.75-.56-.18-1.3-.26-2.2-.26-.58,0-1.12.06-1.62.19-.51.13-.95.33-1.33.62-.37.29-.67.67-.89,1.14-.22.47-.33,1.04-.33,1.72v.29h2.74ZM580.3,117.6v-.46c0-.28.03-.56.08-.84.05-.28.14-.53.25-.76.12-.23.28-.41.47-.55.2-.14.45-.21.76-.21s.56.06.76.19c.2.13.35.31.46.55.11.24.19.54.23.88.04.35.07.75.09,1.2h-3.11ZM586.32,119.41v-.68c0-.91-.06-1.74-.18-2.48-.12-.74-.34-1.38-.66-1.9-.32-.52-.77-.93-1.34-1.21-.56-.29-1.29-.43-2.18-.43-1.03,0-1.85.17-2.47.51-.62.34-1.09.79-1.42,1.37s-.55,1.23-.66,1.97c-.11.74-.17,1.5-.17,2.3,0,.74.03,1.48.1,2.24.07.76.25,1.44.54,2.05.29.61.75,1.11,1.37,1.49.62.38,1.48.57,2.58.57,1.46,0,2.53-.37,3.2-1.11.68-.74,1.05-1.81,1.1-3.19h-2.74c-.09.75-.25,1.31-.49,1.68-.23.37-.61.55-1.13.55-.28,0-.51-.08-.71-.23-.19-.15-.34-.36-.46-.62-.12-.26-.2-.55-.25-.88-.05-.33-.08-.67-.08-1.03v-.95h6.03ZM568.63,111.46h1.5c1.47,0,2.21.73,2.21,2.19,0,.85-.21,1.46-.62,1.82-.41.36-1,.54-1.77.54h-1.32v-4.55ZM565.45,124.88h3.18v-6.67h1.68c.65,0,1.12.18,1.4.53.27.35.43.84.46,1.46l.09,3.03c.02.31.04.61.09.89.04.29.15.54.31.76h3.48v-.13c-.29-.16-.48-.46-.56-.91-.08-.44-.13-1.08-.15-1.92-.01-.84-.05-1.55-.12-2.12s-.19-1.05-.36-1.42c-.18-.38-.43-.66-.75-.86-.32-.2-.76-.34-1.3-.41v-.04c.9-.19,1.56-.62,1.99-1.29.43-.67.64-1.53.64-2.59,0-1.37-.37-2.39-1.11-3.06-.73-.67-1.76-1-3.09-1h-5.87v15.77ZM552.08,116.02c.2-.66.63-.98,1.29-.98s1.11.33,1.31.98c.2.66.3,1.63.3,2.93s-.1,2.27-.3,2.93c-.2.66-.64.98-1.31.98s-1.09-.33-1.29-.98c-.2-.66-.3-1.63-.3-2.93s.1-2.27.3-2.93ZM555.12,124.88h2.91v-15.77h-3.05v4.99h-.04c-.32-.47-.69-.82-1.09-1.06-.4-.24-.89-.35-1.47-.35-1.25,0-2.17.49-2.76,1.47-.59.98-.88,2.57-.88,4.78s.3,3.8.88,4.78c.59.98,1.51,1.47,2.76,1.47.62,0,1.14-.12,1.56-.36.42-.24.8-.64,1.14-1.2h.04v1.26ZM537.85,124.88h3.05v-7.88c0-1.31.54-1.97,1.61-1.97.46,0,.79.12.99.36.21.24.31.67.31,1.29v8.19h3.05v-8.81c0-1.19-.26-2.05-.78-2.58-.52-.53-1.27-.79-2.24-.79-.66,0-1.25.14-1.77.41-.51.27-.93.7-1.26,1.29h-.04v-1.39h-2.92v11.88ZM532.72,121.28c0,.34-.06.62-.18.85s-.27.42-.45.56c-.18.15-.38.25-.61.32-.22.07-.44.1-.64.1-.41,0-.71-.16-.88-.49-.18-.32-.27-.71-.27-1.17,0-.53.13-.95.4-1.26.27-.31.71-.53,1.33-.66.19-.04.4-.11.64-.21.24-.09.45-.23.66-.39v2.34ZM529.89,116.65v-.33c0-.47.12-.85.35-1.13.23-.28.59-.42,1.06-.42.51,0,.88.13,1.09.39.21.26.32.61.32,1.07,0,.4-.09.7-.27.91-.18.21-.49.37-.95.49l-1.72.46c-.53.15-.98.32-1.36.51-.38.19-.69.43-.93.72-.24.29-.42.63-.54,1.04-.12.4-.18.89-.18,1.45,0,.4.05.8.16,1.2.1.4.26.77.49,1.09.22.32.51.59.88.79.37.21.82.31,1.35.31.74,0,1.34-.1,1.8-.31.46-.21.87-.62,1.23-1.24h.04c.04.21.09.41.14.63.05.21.13.42.23.61h2.92c-.15-.35-.25-.68-.3-.99-.05-.31-.08-.74-.08-1.3v-6.25c0-.53-.05-1.02-.17-1.47-.11-.45-.32-.83-.63-1.16-.31-.32-.75-.57-1.31-.75-.57-.18-1.3-.26-2.2-.26-.57,0-1.12.06-1.62.19-.51.13-.95.33-1.32.62-.38.29-.67.67-.89,1.14-.22.47-.33,1.04-.33,1.72v.29h2.74ZM516.82,113v1.32h-.04c-.29-.62-.67-1.04-1.13-1.28-.46-.24-.9-.35-1.33-.35-.83,0-1.48.18-1.98.55-.49.37-.87.84-1.13,1.42-.26.58-.43,1.23-.51,1.95-.08.72-.12,1.43-.12,2.12,0,2.16.31,3.7.92,4.63.61.92,1.52,1.38,2.73,1.38.49,0,.95-.13,1.4-.4.45-.26.83-.62,1.14-1.06h.04v1.57c0,.62-.13,1.13-.37,1.53-.25.4-.69.61-1.3.61-.19,0-.37-.03-.54-.09-.17-.06-.33-.14-.47-.24-.31-.22-.46-.52-.46-.91h-2.91c0,1.02.35,1.8,1.05,2.35.7.55,1.69.83,2.99.83,1.78,0,3.05-.38,3.81-1.14.76-.76,1.14-1.93,1.14-3.52v-11.28h-2.91ZM513.7,117.3c.04-.55.11-.99.23-1.32.12-.33.28-.57.49-.72.21-.15.48-.22.82-.22.6,0,1.02.3,1.25.91.23.6.34,1.63.34,3.07,0,.5-.03.96-.08,1.38-.05.42-.14.78-.26,1.07-.13.29-.3.53-.51.7-.22.17-.48.25-.81.25s-.58-.08-.78-.25c-.2-.17-.35-.4-.46-.68-.11-.29-.18-.61-.22-.98-.04-.37-.05-.76-.05-1.17,0-.79.02-1.47.05-2.02ZM499.71,124.88h3.05v-7.88c0-1.31.54-1.97,1.61-1.97.45,0,.79.12.99.36.21.24.31.67.31,1.29v8.19h3.05v-8.81c0-1.19-.26-2.05-.78-2.58-.52-.53-1.27-.79-2.24-.79-.66,0-1.25.14-1.77.41-.52.27-.94.7-1.26,1.29h-.05v-1.39h-2.91v11.88ZM494.44,124.88h3.05v-11.88h-3.05v11.88ZM494.44,111.55h3.05v-2.61h-3.05v2.61ZM483.23,124.88h3.05v-7.88c0-1.31.54-1.97,1.61-1.97.45,0,.79.12.99.36.21.24.31.67.31,1.29v8.19h3.05v-8.81c0-1.19-.26-2.05-.78-2.58-.52-.53-1.27-.79-2.24-.79-.66,0-1.25.14-1.77.41-.52.27-.94.7-1.26,1.29h-.04v-1.39h-2.91v11.88ZM475.65,124.88h3.05v-7.13c0-.4.07-.73.2-1,.13-.27.31-.49.53-.66.22-.17.46-.29.73-.36.27-.07.53-.11.79-.11.16,0,.32,0,.47.01s.31.02.47.03v-2.91c-.09-.02-.18-.03-.28-.03-.1,0-.19-.01-.28-.01-.63,0-1.17.17-1.61.52-.44.35-.82.81-1.13,1.38h-.04v-1.59h-2.91v11.88ZM470.51,121.28c0,.34-.06.62-.18.85s-.27.42-.45.56c-.18.15-.39.25-.61.32-.22.07-.43.1-.64.1-.41,0-.71-.16-.88-.49-.18-.32-.27-.71-.27-1.17,0-.53.13-.95.4-1.26.26-.31.71-.53,1.32-.66.19-.04.4-.11.64-.21.24-.09.46-.23.66-.39v2.34ZM467.69,116.65v-.33c0-.47.12-.85.35-1.13.24-.28.59-.42,1.06-.42.51,0,.88.13,1.09.39.21.26.32.61.32,1.07,0,.4-.09.7-.27.91-.18.21-.49.37-.95.49l-1.72.46c-.53.15-.98.32-1.36.51-.38.19-.68.43-.93.72-.24.29-.42.63-.54,1.04-.12.4-.18.89-.18,1.45,0,.4.05.8.15,1.2.1.4.27.77.49,1.09.22.32.51.59.88.79.37.21.82.31,1.35.31.74,0,1.34-.1,1.8-.31.46-.21.87-.62,1.23-1.24h.04c.04.21.09.41.14.63.05.21.13.42.23.61h2.91c-.15-.35-.25-.68-.3-.99-.05-.31-.08-.74-.08-1.3v-6.25c0-.53-.06-1.02-.17-1.47-.11-.45-.32-.83-.63-1.16-.31-.32-.75-.57-1.31-.75-.57-.18-1.3-.26-2.2-.26-.57,0-1.12.06-1.62.19-.51.13-.95.33-1.32.62-.38.29-.67.67-.89,1.14-.22.47-.33,1.04-.33,1.72v.29h2.74ZM457.26,117.6v-.46c0-.28.03-.56.08-.84.05-.28.14-.53.25-.76.12-.23.28-.41.47-.55.2-.14.45-.21.76-.21s.56.06.76.19c.2.13.35.31.46.55.11.24.19.54.23.88.04.35.07.75.09,1.2h-3.11ZM463.29,119.41v-.68c0-.91-.06-1.74-.18-2.48-.12-.74-.34-1.38-.66-1.9-.32-.52-.77-.93-1.34-1.21s-1.29-.43-2.17-.43c-1.03,0-1.85.17-2.47.51-.62.34-1.09.79-1.42,1.37-.33.57-.55,1.23-.66,1.97-.11.74-.17,1.5-.17,2.3,0,.74.03,1.48.1,2.24.07.76.25,1.44.54,2.05.29.61.75,1.11,1.37,1.49.62.38,1.48.57,2.58.57,1.46,0,2.52-.37,3.2-1.11.68-.74,1.04-1.81,1.1-3.19h-2.74c-.09.75-.25,1.31-.49,1.68-.24.37-.61.55-1.13.55-.28,0-.51-.08-.71-.23-.19-.15-.35-.36-.46-.62-.12-.26-.2-.55-.25-.88-.05-.33-.08-.67-.08-1.03v-.95h6.03ZM453.03,124.88v-2.61h-5.63v-13.16h-3.18v15.77h8.81Z"/>
    <path class="cls-42" d="M586.28,92.56v-.46c0-.28.02-.56.08-.84.05-.28.14-.53.25-.76.12-.23.27-.41.47-.55.2-.14.45-.21.76-.21s.56.06.76.19c.2.13.35.31.46.55.11.24.19.54.23.88.04.35.07.75.09,1.2h-3.11ZM592.31,94.37v-.68c0-.91-.06-1.74-.18-2.48-.12-.74-.34-1.38-.66-1.9-.33-.52-.77-.93-1.34-1.21-.57-.29-1.29-.43-2.17-.43-1.03,0-1.85.17-2.47.51-.62.34-1.09.79-1.42,1.37-.33.57-.55,1.23-.66,1.97-.11.74-.16,1.5-.16,2.3,0,.74.03,1.48.1,2.24s.25,1.44.54,2.05.75,1.11,1.37,1.49c.62.38,1.48.57,2.58.57,1.46,0,2.53-.37,3.2-1.11s1.04-1.81,1.1-3.19h-2.74c-.09.75-.25,1.31-.49,1.68-.24.37-.61.55-1.13.55-.28,0-.52-.08-.71-.23-.19-.15-.35-.36-.46-.62-.12-.26-.2-.55-.25-.88-.05-.33-.08-.67-.08-1.03v-.95h6.03ZM572.45,99.85h3.05v-7.88c0-1.31.54-1.97,1.61-1.97.45,0,.79.12.99.36.2.24.31.67.31,1.29v8.19h3.05v-8.81c0-1.19-.26-2.05-.78-2.58-.52-.53-1.27-.79-2.24-.79-.66,0-1.25.14-1.77.41-.52.27-.94.7-1.26,1.29h-.04v-1.39h-2.91v11.88ZM567.19,99.85h3.05v-11.88h-3.05v11.88ZM567.19,86.51h3.05v-2.61h-3.05v2.61ZM555.98,99.85h3.05v-7.88c0-1.31.54-1.97,1.61-1.97.46,0,.79.12.99.36.21.24.31.67.31,1.29v8.19h3.04v-8.81c0-1.19-.26-2.05-.78-2.58-.52-.53-1.27-.79-2.24-.79-1.34,0-2.3.51-2.89,1.52h-.04v-5.1h-3.05v15.77ZM554.24,92.25c0-1.41-.36-2.53-1.07-3.36-.71-.82-1.78-1.24-3.19-1.24-.71,0-1.35.09-1.94.29-.59.19-1.1.53-1.52,1-.43.48-.76,1.12-.99,1.92-.24.8-.35,1.81-.35,3.04s.09,2.19.29,2.99c.19.8.47,1.44.85,1.92.38.48.85.82,1.41,1.03.57.21,1.23.31,2,.31,1.62,0,2.78-.42,3.48-1.26.7-.84,1.05-2.04,1.05-3.6h-2.91c0,.97-.12,1.68-.35,2.12-.24.44-.61.66-1.13.66-.34,0-.62-.08-.83-.23-.22-.15-.38-.4-.5-.74-.12-.34-.2-.77-.24-1.29-.04-.52-.07-1.15-.07-1.89,0-.68.02-1.27.07-1.79.04-.51.13-.94.24-1.27.12-.33.29-.58.52-.75.23-.17.53-.25.92-.25.28,0,.51.07.69.21.18.14.33.32.42.55.09.23.16.49.2.77s.05.57.05.85h2.91ZM540.46,96.25c0,.34-.06.62-.18.85-.12.23-.27.42-.45.56-.18.15-.39.25-.61.32-.22.07-.44.1-.64.1-.41,0-.71-.16-.88-.49-.18-.32-.26-.71-.26-1.17,0-.53.13-.95.4-1.26.27-.31.71-.53,1.33-.66.19-.04.4-.11.64-.21.24-.09.46-.23.66-.39v2.34ZM537.64,91.61v-.33c0-.47.12-.85.35-1.13.24-.28.59-.42,1.06-.42.51,0,.88.13,1.09.39.22.26.32.61.32,1.07,0,.4-.09.7-.27.91-.18.21-.49.37-.95.49l-1.72.46c-.53.15-.98.32-1.36.51-.38.19-.68.43-.93.72s-.42.63-.54,1.04c-.12.4-.18.89-.18,1.45,0,.4.05.8.15,1.2.1.4.26.77.49,1.09.22.32.51.59.88.79.37.21.82.31,1.35.31.73,0,1.33-.1,1.8-.31.46-.21.87-.62,1.23-1.24h.04c.04.21.09.42.14.63.05.21.13.42.23.61h2.91c-.15-.35-.25-.68-.3-.99-.05-.31-.08-.74-.08-1.3v-6.25c0-.53-.05-1.02-.16-1.47-.11-.45-.32-.83-.63-1.16-.31-.32-.75-.57-1.31-.75-.57-.18-1.3-.26-2.2-.26-.57,0-1.11.06-1.62.19-.51.13-.95.33-1.33.62s-.67.67-.89,1.14-.33,1.04-.33,1.72v.29h2.74ZM518.63,99.85h2.91v-12.59h.04l2.8,12.59h2.47l2.8-12.59h.04v12.59h2.92v-15.77h-4.7l-2.27,11.13h-.04l-2.25-11.13h-4.73v15.77ZM507.3,99.85h3.05v-9.8h1.76v-2.08h-1.76v-1.04c0-.34.09-.58.26-.73.18-.15.48-.22.91-.22h.29c.13,0,.24,0,.31.02v-2.16c-.56-.04-1.1-.07-1.63-.07-.49,0-.93.05-1.33.14-.4.09-.73.25-1,.47-.27.22-.48.51-.63.88-.15.37-.22.82-.22,1.35v1.35h-1.55v2.08h1.55v9.8ZM498.55,92.23c.03-.51.1-.96.21-1.32.11-.37.27-.66.49-.86.21-.21.51-.31.89-.31.62,0,1.05.32,1.28.97.24.65.35,1.72.35,3.2s-.12,2.55-.35,3.2c-.23.65-.66.97-1.28.97-.38,0-.68-.1-.89-.31-.21-.21-.38-.49-.49-.86-.11-.37-.18-.81-.21-1.32-.03-.51-.04-1.08-.04-1.68s.02-1.16.04-1.68ZM495.68,96.65c.15.78.4,1.44.75,1.97.35.53.83.92,1.44,1.18.61.26,1.36.38,2.27.36.87,0,1.6-.14,2.2-.41.6-.27,1.08-.67,1.45-1.19.37-.52.63-1.17.8-1.95.16-.78.24-1.68.24-2.69s-.07-1.94-.22-2.73c-.15-.79-.4-1.45-.75-1.98-.35-.53-.83-.92-1.44-1.18-.6-.26-1.36-.38-2.27-.36-.87,0-1.6.14-2.2.41-.6.27-1.08.67-1.45,1.19-.37.52-.63,1.17-.79,1.95-.16.78-.24,1.68-.24,2.69s.07,1.96.22,2.74ZM483.21,99.85h3.05v-7.13c0-.4.07-.73.2-1,.13-.27.31-.49.53-.66.22-.17.46-.29.73-.36.27-.07.53-.11.79-.11.16,0,.32,0,.47.01.15,0,.31.02.47.03v-2.91c-.09-.02-.18-.03-.28-.03-.1,0-.19-.01-.28-.01-.63,0-1.17.17-1.61.52-.44.35-.82.81-1.13,1.38h-.04v-1.59h-2.91v11.88ZM477.95,99.85h3.05v-11.88h-3.05v11.88ZM477.95,86.51h3.05v-2.61h-3.05v2.61ZM472.74,96.25c0,.34-.06.62-.18.85-.12.23-.27.42-.45.56-.19.15-.39.25-.61.32-.22.07-.43.1-.64.1-.41,0-.71-.16-.88-.49-.18-.32-.27-.71-.27-1.17,0-.53.13-.95.4-1.26.27-.31.71-.53,1.32-.66.19-.04.4-.11.64-.21.23-.09.45-.23.66-.39v2.34ZM469.91,91.61v-.33c0-.47.12-.85.35-1.13.23-.28.59-.42,1.06-.42.51,0,.88.13,1.09.39.21.26.32.61.32,1.07,0,.4-.09.7-.27.91s-.49.37-.95.49l-1.72.46c-.53.15-.98.32-1.36.51-.38.19-.68.43-.93.72-.24.29-.42.63-.54,1.04-.12.4-.18.89-.18,1.45,0,.4.05.8.15,1.2.1.4.27.77.49,1.09.22.32.51.59.88.79.37.21.82.31,1.35.31.74,0,1.34-.1,1.8-.31.46-.21.87-.62,1.23-1.24h.04c.04.21.09.42.14.63.05.21.13.42.23.61h2.91c-.15-.35-.25-.68-.3-.99-.05-.31-.08-.74-.08-1.3v-6.25c0-.53-.06-1.02-.17-1.47-.11-.45-.32-.83-.63-1.16-.31-.32-.75-.57-1.31-.75-.57-.18-1.3-.26-2.2-.26-.57,0-1.11.06-1.62.19-.51.13-.95.33-1.32.62s-.67.67-.89,1.14c-.22.47-.33,1.04-.33,1.72v.29h2.74ZM456.08,99.85h3.05v-7.88c0-1.31.54-1.97,1.61-1.97.45,0,.79.12.99.36.21.24.31.67.31,1.29v8.19h3.05v-8.81c0-1.19-.26-2.05-.78-2.58-.52-.53-1.27-.79-2.24-.79-1.34,0-2.31.51-2.89,1.52h-.04v-5.1h-3.05v15.77ZM454.13,89.4c0-.57-.04-1.19-.12-1.84-.08-.66-.28-1.27-.61-1.83-.32-.57-.81-1.03-1.47-1.4-.66-.37-1.55-.55-2.68-.55-1.19,0-2.14.2-2.85.61-.71.4-1.25.97-1.62,1.69-.38.72-.62,1.59-.73,2.59-.11,1.01-.17,2.11-.17,3.3s.06,2.29.17,3.3c.11,1.01.35,1.87.73,2.59.38.72.92,1.29,1.62,1.69.71.4,1.66.61,2.85.61,1.04,0,1.89-.17,2.55-.51.66-.34,1.16-.8,1.52-1.38.36-.58.61-1.25.74-2.02.13-.77.2-1.57.2-2.43h-3.18c0,.85-.05,1.54-.15,2.06-.1.52-.24.93-.42,1.21-.18.29-.39.48-.63.57-.24.09-.5.14-.78.14-.34,0-.64-.07-.89-.21-.26-.14-.47-.41-.64-.82-.17-.4-.29-.98-.38-1.71-.08-.74-.12-1.7-.12-2.89,0-1.12.03-2.06.09-2.84.06-.77.16-1.4.31-1.88.15-.48.35-.82.61-1.04.26-.21.59-.32.98-.32.72,0,1.22.26,1.49.78.27.52.41,1.36.41,2.51h3.18Z"/>
    <rect class="cls-1" width="1125.86" height="200"/>
  </g>
  <g class="cls-57">
    <g class="cls-43">
      <g>
        <path class="cls-52" d="M159.45,84.38h3.17v13.1h5.6v2.59h-8.77v-15.69Z"/>
        <path class="cls-52" d="M169.52,91.59c0-.69.11-1.26.33-1.73s.52-.83.89-1.12c.37-.29.81-.49,1.32-.62.5-.12,1.04-.19,1.62-.19.91,0,1.64.09,2.2.26s.99.43,1.3.75c.31.32.52.71.63,1.15.11.45.17.93.17,1.46v6.22c0,.56.03.99.08,1.3.05.31.15.64.3.99h-2.9c-.1-.19-.18-.39-.23-.6-.05-.21-.1-.42-.14-.63h-.04c-.35.62-.76,1.01-1.22,1.2-.46.18-1.06.27-1.79.27-.53,0-.97-.09-1.34-.27-.37-.18-.66-.44-.88-.76s-.38-.68-.48-1.09c-.1-.4-.15-.8-.15-1.2,0-.56.06-1.04.18-1.44.12-.4.3-.75.54-1.03.24-.29.55-.52.92-.71.37-.19.82-.36,1.35-.51l1.71-.46c.45-.12.77-.28.94-.48.18-.21.26-.51.26-.9,0-.45-.11-.81-.32-1.07-.21-.26-.58-.38-1.09-.38-.47,0-.82.14-1.05.42s-.35.65-.35,1.12v.33h-2.72v-.29ZM174.4,94.54c-.23.1-.45.17-.64.21-.62.13-1.05.35-1.32.66-.26.31-.4.73-.4,1.25,0,.45.09.84.26,1.16.18.32.47.48.88.48.2,0,.42-.03.64-.1s.42-.17.6-.32c.18-.15.33-.34.45-.57.12-.23.18-.51.18-.83v-2.33c-.21.16-.42.29-.66.38Z"/>
        <path class="cls-52" d="M183.14,84.38v4.97h.04c.32-.47.68-.82,1.09-1.05.4-.23.89-.35,1.46-.35,1.25,0,2.16.49,2.75,1.46.59.97.88,2.56.88,4.76s-.29,3.77-.88,4.72c-.59.95-1.5,1.43-2.75,1.43-.62,0-1.13-.11-1.55-.33-.42-.22-.79-.61-1.13-1.16h-.04v1.25h-2.9v-15.69h3.03ZM183.44,97.07c.2.65.63.98,1.31.98s1.09-.33,1.29-.98c.2-.65.3-1.62.3-2.91s-.1-2.26-.3-2.91c-.2-.65-.63-.98-1.29-.98s-1.11.33-1.31.98c-.2.65-.3,1.62-.3,2.91s.1,2.26.3,2.91Z"/>
        <path class="cls-52" d="M202.75,87.18c-.27-.52-.77-.78-1.48-.78-.4,0-.72.11-.98.32-.26.21-.46.56-.6,1.03-.15.48-.25,1.1-.31,1.87s-.09,1.71-.09,2.82c0,1.19.04,2.15.12,2.88.08.73.21,1.3.37,1.7.17.4.38.67.64.81.26.14.55.21.89.21.28,0,.54-.05.78-.14.24-.1.45-.29.63-.57s.32-.69.42-1.21.15-1.21.15-2.06h3.16c0,.85-.07,1.66-.2,2.42-.13.76-.38,1.43-.74,2-.36.57-.87,1.02-1.52,1.34-.65.32-1.5.48-2.54.48-1.19,0-2.13-.19-2.83-.57s-1.24-.93-1.62-1.65c-.37-.72-.62-1.57-.73-2.57-.11-1-.16-2.09-.16-3.3s.05-2.28.16-3.29c.11-1,.35-1.86.73-2.58s.91-1.28,1.62-1.68,1.65-.6,2.83-.6,2.02.18,2.67.55c.65.37,1.14.83,1.46,1.4s.52,1.17.6,1.82c.08.65.12,1.26.12,1.83h-3.17c0-1.14-.13-1.97-.41-2.49Z"/>
        <path class="cls-52" d="M208.02,91.48c.16-.78.42-1.42.79-1.94s.85-.92,1.44-1.19c.59-.27,1.32-.41,2.19-.41.91-.01,1.66.11,2.26.36s1.08.65,1.43,1.18.6,1.18.75,1.96.22,1.68.22,2.73-.08,1.9-.24,2.68c-.16.78-.43,1.43-.79,1.94-.37.52-.85.9-1.44,1.15-.59.25-1.32.37-2.19.37-.91.01-1.66-.1-2.26-.34-.6-.24-1.08-.62-1.43-1.14-.35-.52-.6-1.17-.75-1.96s-.22-1.69-.22-2.71.08-1.9.24-2.68ZM210.85,95.83c.03.51.1.95.21,1.32.11.37.28.65.5.86.22.21.51.31.88.31.62,0,1.04-.32,1.27-.97.23-.64.35-1.71.35-3.19s-.12-2.54-.35-3.19-.66-.97-1.27-.97c-.37,0-.66.1-.88.31s-.38.49-.5.86c-.11.37-.18.81-.21,1.32-.03.51-.04,1.07-.04,1.67s.01,1.16.04,1.67Z"/>
        <path class="cls-52" d="M224.74,98.69c-.32.59-.74,1-1.25,1.25s-1.1.37-1.76.37c-.97,0-1.71-.25-2.23-.76-.52-.51-.78-1.35-.78-2.54v-8.77h3.03v8.15c0,.62.1,1.04.31,1.29.2.24.53.36.99.36,1.07,0,1.6-.65,1.6-1.96v-7.85h3.03v11.82h-2.9v-1.38h-.04Z"/>
        <path class="cls-52" d="M232.61,88.25v1.58h.04c.31-.57.68-1.03,1.12-1.37s.97-.52,1.6-.52c.09,0,.18,0,.27.01.1,0,.19.02.27.03v2.9c-.16-.01-.32-.03-.47-.03-.15,0-.31-.01-.47-.01-.26,0-.53.04-.79.11s-.51.19-.73.36c-.22.17-.4.39-.53.66-.13.27-.2.6-.2,1v7.1h-3.03v-11.82h2.9Z"/>
        <path class="cls-52" d="M239.24,96.6c0,.51.13.93.41,1.24s.66.47,1.18.47c.47,0,.84-.12,1.12-.35.28-.23.42-.59.42-1.05,0-.38-.11-.67-.33-.87-.22-.2-.48-.35-.77-.47l-2.13-.77c-.83-.29-1.46-.71-1.89-1.24s-.64-1.22-.64-2.05c0-.48.08-.94.24-1.37s.42-.81.77-1.13c.35-.32.8-.58,1.35-.77.55-.19,1.21-.29,1.99-.29,1.38,0,2.4.29,3.05.88.66.59.99,1.41.99,2.48v.48h-2.73c0-.62-.1-1.07-.3-1.35-.2-.29-.55-.43-1.04-.43-.38,0-.71.11-1,.32-.29.21-.43.53-.43.96,0,.29.09.56.27.79s.53.43,1.04.59l1.82.62c.95.32,1.63.74,2.02,1.26s.59,1.23.59,2.12c0,.63-.11,1.18-.33,1.64s-.52.85-.91,1.15c-.39.31-.85.53-1.38.66-.54.13-1.12.2-1.77.2-.85,0-1.56-.08-2.12-.24-.56-.16-1.01-.4-1.34-.73-.33-.32-.56-.71-.69-1.18s-.2-.98-.2-1.55v-.42h2.72v.4Z"/>
        <path class="cls-52" d="M249.37,95.57c0,.35.03.69.08,1.02s.14.62.25.88.27.46.46.62c.19.15.42.23.7.23.51,0,.89-.18,1.12-.55.23-.37.4-.92.48-1.67h2.73c-.06,1.38-.43,2.42-1.1,3.14-.67.72-1.74,1.08-3.19,1.08-1.1,0-1.96-.18-2.57-.55s-1.07-.85-1.36-1.45c-.29-.6-.47-1.27-.54-2.02-.07-.75-.1-1.49-.1-2.24,0-.79.05-1.55.17-2.29.11-.73.33-1.38.66-1.96.33-.57.8-1.02,1.42-1.36.62-.34,1.44-.51,2.46-.51.88,0,1.6.14,2.16.43.56.29,1.01.69,1.33,1.21.32.52.54,1.15.66,1.89.12.74.18,1.56.18,2.47v.68h-6v.94ZM252.39,91.62c-.04-.34-.12-.64-.23-.88-.11-.24-.26-.42-.46-.55-.2-.12-.45-.19-.76-.19s-.56.07-.76.21c-.2.14-.36.32-.47.55-.12.23-.2.48-.25.76s-.08.56-.08.83v.46h3.1c-.01-.45-.04-.85-.09-1.2Z"/>
      </g>
      <g>
        <path class="cls-52" d="M166.42,109.15l4.15,15.69h-3.3l-.72-3.32h-4.18l-.73,3.32h-3.3l4.15-15.69h3.91ZM166,118.93l-1.52-7.05h-.04l-1.52,7.05h3.08Z"/>
        <path class="cls-52" d="M171.83,109.15h3.16v15.69h-3.16v-15.69Z"/>
        <path class="cls-52" d="M181.65,115.08v-2.07h1.54v-1.34c0-.53.07-.97.22-1.34s.36-.66.63-.88c.27-.22.6-.38,1-.47.4-.09.84-.14,1.32-.14.54,0,1.08.02,1.63.07v2.15c-.07-.01-.18-.02-.31-.02h-.29c-.42,0-.72.07-.9.22s-.26.39-.26.73v1.03h1.76v2.07h-1.76v9.76h-3.03v-9.76h-1.54Z"/>
        <path class="cls-52" d="M188.88,116.24c.16-.78.42-1.42.79-1.94.37-.52.85-.92,1.44-1.19.59-.27,1.32-.41,2.19-.41.91-.01,1.66.11,2.26.36.6.26,1.08.65,1.43,1.18s.6,1.18.75,1.96c.15.78.22,1.69.22,2.73s-.08,1.9-.24,2.68c-.16.78-.43,1.42-.79,1.95-.37.52-.85.9-1.44,1.15-.59.25-1.32.37-2.19.37-.91.01-1.66-.1-2.26-.34-.6-.24-1.08-.62-1.43-1.14-.35-.52-.6-1.17-.75-1.96s-.22-1.69-.22-2.71.08-1.9.24-2.68ZM191.71,120.6c.03.51.1.95.21,1.32.11.37.28.65.5.86s.51.31.88.31c.62,0,1.04-.32,1.27-.97s.35-1.71.35-3.19-.12-2.54-.35-3.19-.66-.97-1.27-.97c-.37,0-.66.1-.88.31s-.38.49-.5.86c-.11.37-.18.81-.21,1.32s-.04,1.07-.04,1.67.01,1.16.04,1.67Z"/>
        <path class="cls-52" d="M202.48,113.01v1.58h.04c.31-.57.68-1.03,1.12-1.37.44-.34.97-.52,1.6-.52.09,0,.18,0,.27.01.1,0,.19.02.27.03v2.9c-.16-.01-.32-.03-.47-.03-.15,0-.31-.01-.47-.01-.26,0-.53.04-.79.11-.26.07-.51.19-.73.36-.22.17-.4.39-.53.66-.13.27-.2.6-.2,1v7.1h-3.03v-11.82h2.9Z"/>
      </g>
      <g class="cls-46">
        <g>
          <path class="cls-52" d="M165.3,133.93c1.32,0,2.34.33,3.08,1s1.1,1.68,1.1,3.04c0,1.05-.21,1.92-.64,2.58-.42.67-1.08,1.09-1.98,1.29v.04c.79.12,1.37.37,1.74.77s.59,1.03.68,1.91c.03.29.05.61.07.96.01.34.03.73.04,1.15.03.83.07,1.47.13,1.91.09.44.28.74.57.9v.13h-3.43c-.16-.22-.26-.47-.31-.76-.04-.29-.07-.58-.09-.89l-.09-3.01c-.03-.62-.18-1.1-.46-1.45s-.75-.53-1.41-.53h-1.69v6.64h-3.17v-15.69h5.85ZM163.94,140.79c.76,0,1.35-.18,1.76-.54.41-.36.62-.96.62-1.81,0-1.45-.73-2.18-2.2-2.18h-1.49v4.53h1.32Z"/>
          <path class="cls-52" d="M171.43,141.03c.16-.78.42-1.42.79-1.94.37-.52.85-.92,1.44-1.19.59-.27,1.32-.41,2.19-.41.91-.01,1.66.11,2.26.36.6.26,1.08.65,1.43,1.18s.6,1.18.75,1.96c.15.78.22,1.69.22,2.73s-.08,1.9-.24,2.68c-.16.78-.43,1.42-.79,1.95-.37.52-.85.9-1.44,1.15-.59.25-1.32.37-2.19.37-.91.01-1.66-.1-2.26-.34-.6-.24-1.08-.62-1.43-1.14-.35-.52-.6-1.17-.75-1.96s-.22-1.69-.22-2.71.08-1.9.24-2.68ZM174.26,145.38c.03.51.1.95.21,1.32.11.37.28.65.5.86s.51.31.88.31c.62,0,1.04-.32,1.27-.97s.35-1.71.35-3.19-.12-2.54-.35-3.19-.66-.97-1.27-.97c-.37,0-.66.1-.88.31s-.38.49-.5.86c-.11.37-.18.81-.21,1.32s-.04,1.07-.04,1.67.01,1.16.04,1.67Z"/>
          <path class="cls-52" d="M185.16,133.93v4.97h.04c.32-.47.68-.82,1.09-1.05.4-.23.89-.35,1.46-.35,1.25,0,2.16.49,2.75,1.46.59.97.88,2.56.88,4.76s-.29,3.77-.88,4.72c-.59.95-1.5,1.43-2.75,1.43-.62,0-1.13-.11-1.55-.33-.42-.22-.79-.61-1.13-1.17h-.04v1.25h-2.9v-15.69h3.03ZM185.46,146.62c.2.65.63.98,1.31.98s1.09-.33,1.29-.98c.2-.65.3-1.62.3-2.91s-.1-2.26-.3-2.91c-.2-.65-.63-.98-1.29-.98s-1.11.33-1.31.98c-.2.65-.3,1.62-.3,2.91s.1,2.26.3,2.91Z"/>
          <path class="cls-52" d="M192.97,141.03c.16-.78.42-1.42.79-1.94.37-.52.85-.92,1.44-1.19.59-.27,1.32-.41,2.19-.41.91-.01,1.66.11,2.26.36.6.26,1.08.65,1.43,1.18s.6,1.18.75,1.96c.15.78.22,1.69.22,2.73s-.08,1.9-.24,2.68c-.16.78-.43,1.42-.79,1.95-.37.52-.85.9-1.44,1.15-.59.25-1.32.37-2.19.37-.91.01-1.66-.1-2.26-.34-.6-.24-1.08-.62-1.43-1.14-.35-.52-.6-1.17-.75-1.96s-.22-1.69-.22-2.71.08-1.9.24-2.68ZM195.8,145.38c.03.51.1.95.21,1.32.11.37.28.65.5.86s.51.31.88.31c.62,0,1.04-.32,1.27-.97s.35-1.71.35-3.19-.12-2.54-.35-3.19-.66-.97-1.27-.97c-.37,0-.66.1-.88.31s-.38.49-.5.86c-.11.37-.18.81-.21,1.32s-.04,1.07-.04,1.67.01,1.16.04,1.67Z"/>
          <path class="cls-52" d="M207.36,134.42v3.38h1.76v2.07h-1.76v6.39c0,.47.07.8.21,1,.14.2.43.3.87.3.12,0,.23,0,.35-.01.12,0,.23-.02.33-.03v2.11c-.34,0-.66.01-.98.03-.31.02-.65.03-1,.03-.59,0-1.07-.04-1.44-.12-.37-.08-.66-.24-.86-.48-.2-.24-.33-.56-.41-.96-.07-.4-.11-.89-.11-1.49v-6.77h-1.54v-2.07h1.54v-3.38h3.03Z"/>
          <path class="cls-52" d="M213.31,133.76v2.59h-3.03v-2.59h3.03ZM213.31,137.8v11.82h-3.03v-11.82h3.03Z"/>
          <path class="cls-52" d="M221.08,141.21c-.04-.28-.1-.53-.2-.76-.1-.23-.23-.41-.41-.55-.18-.14-.41-.21-.7-.21-.37,0-.67.08-.9.25-.24.17-.41.42-.53.75-.12.33-.2.75-.24,1.25-.04.51-.07,1.1-.07,1.79,0,.73.02,1.36.07,1.88.04.52.12.95.24,1.29s.28.58.5.74c.21.15.49.23.82.23.51,0,.89-.22,1.12-.66s.35-1.14.35-2.11h2.9c0,1.55-.35,2.74-1.04,3.55-.7.81-1.85,1.22-3.46,1.22-.76,0-1.43-.09-1.99-.28-.56-.18-1.03-.51-1.41-.99-.37-.48-.66-1.11-.85-1.91-.19-.8-.29-1.79-.29-2.98s.12-2.22.35-3.02c.23-.8.56-1.44.99-1.91.42-.48.93-.81,1.52-1s1.23-.29,1.93-.29c1.41,0,2.46.41,3.17,1.23.71.82,1.07,1.93,1.07,3.34h-2.9c0-.29-.02-.58-.05-.86Z"/>
          <path class="cls-52" d="M227.84,146.15c0,.51.13.93.41,1.24.27.32.66.47,1.18.47.47,0,.84-.12,1.12-.35s.42-.59.42-1.05c0-.38-.11-.67-.33-.87-.22-.2-.48-.36-.77-.47l-2.13-.77c-.83-.29-1.46-.71-1.89-1.24s-.64-1.22-.64-2.05c0-.48.08-.94.24-1.37.16-.43.42-.81.77-1.13s.8-.58,1.35-.77c.55-.19,1.21-.29,1.99-.29,1.38,0,2.4.29,3.05.88s.99,1.41.99,2.48v.48h-2.73c0-.62-.1-1.07-.3-1.35-.2-.29-.55-.43-1.04-.43-.38,0-.71.11-1,.32-.29.21-.43.53-.43.96,0,.29.09.56.27.79s.53.43,1.04.59l1.82.62c.95.32,1.63.74,2.02,1.26.4.52.59,1.23.59,2.12,0,.63-.11,1.18-.33,1.64-.22.46-.52.85-.91,1.15-.39.31-.85.53-1.38.66-.54.13-1.12.2-1.77.2-.85,0-1.56-.08-2.12-.24-.56-.16-1.01-.4-1.34-.73-.33-.32-.56-.71-.69-1.17-.13-.46-.2-.98-.2-1.55v-.42h2.72v.4Z"/>
        </g>
        <path class="cls-52" d="M55.5,44.65h68.56c11.41,0,20.66,9.25,20.66,20.66v68.56c0,11.41-9.25,20.66-20.66,20.66H55.5c-11.41,0-20.66-9.25-20.66-20.66v-68.56c0-11.41,9.25-20.66,20.66-20.66"/>
        <path class="cls-12" d="M48.36,53.6h5.93c.42,0,.77.34.77.77v5.93c0,.42-.34.77-.77.77h-5.93c-.42,0-.77-.34-.77-.77v-5.93c0-.42.34-.77.77-.77"/>
        <g class="cls-54">
          <g class="cls-44">
            <path class="cls-13" d="M56.6,53.6h5.93c.42,0,.77.34.77.77v5.93c0,.42-.34.77-.77.77h-5.93c-.42,0-.77-.34-.77-.77v-5.93c0-.42.34-.77.77-.77"/>
          </g>
        </g>
        <g class="cls-56">
          <g class="cls-45">
            <path class="cls-11" d="M64.84,53.6h5.93c.42,0,.77.34.77.77v5.93c0,.42-.34.77-.77.77h-5.93c-.42,0-.77-.34-.77-.77v-5.93c0-.42.34-.77.77-.77"/>
          </g>
        </g>
        <g class="cls-56">
          <g class="cls-51">
            <path class="cls-11" d="M73.08,53.6h5.93c.42,0,.77.34.77.77v5.93c0,.42-.34.77-.77.77h-5.93c-.42,0-.77-.34-.77-.77v-5.93c0-.42.34-.77.77-.77"/>
          </g>
        </g>
        <g class="cls-56">
          <g class="cls-48">
            <path class="cls-11" d="M81.32,53.6h5.93c.42,0,.77.34.77.77v5.93c0,.42-.34.77-.77.77h-5.93c-.42,0-.77-.34-.77-.77v-5.93c0-.42.34-.77.77-.77"/>
          </g>
        </g>
        <g class="cls-56">
          <g class="cls-47">
            <path class="cls-11" d="M48.36,61.85h5.93c.42,0,.77.34.77.77v5.93c0,.42-.34.77-.77.77h-5.93c-.42,0-.77-.34-.77-.77v-5.93c0-.42.34-.77.77-.77"/>
          </g>
        </g>
        <g class="cls-54">
          <g class="cls-50">
            <path class="cls-13" d="M56.6,61.85h5.93c.42,0,.77.34.77.77v5.93c0,.42-.34.77-.77.77h-5.93c-.42,0-.77-.34-.77-.77v-5.93c0-.42.34-.77.77-.77"/>
          </g>
        </g>
        <g class="cls-54">
          <g class="cls-49">
            <path class="cls-13" d="M64.84,61.85h5.93c.42,0,.77.34.77.77v5.93c0,.42-.34.77-.77.77h-5.93c-.42,0-.77-.34-.77-.77v-5.93c0-.42.34-.77.77-.77"/>
          </g>
        </g>
        <g class="cls-56">
          <g class="cls-19">
            <path class="cls-11" d="M73.08,61.85h5.93c.42,0,.77.34.77.77v5.93c0,.42-.34.77-.77.77h-5.93c-.42,0-.77-.34-.77-.77v-5.93c0-.42.34-.77.77-.77"/>
          </g>
        </g>
        <g class="cls-56">
          <g class="cls-16">
            <path class="cls-11" d="M81.32,61.85h5.93c.42,0,.77.34.77.77v5.93c0,.42-.34.77-.77.77h-5.93c-.42,0-.77-.34-.77-.77v-5.93c0-.42.34-.77.77-.77"/>
          </g>
        </g>
        <g class="cls-56">
          <g class="cls-23">
            <path class="cls-11" d="M48.36,70.09h5.93c.42,0,.77.34.77.77v5.93c0,.42-.34.77-.77.77h-5.93c-.42,0-.77-.34-.77-.77v-5.93c0-.42.34-.77.77-.77"/>
          </g>
        </g>
        <g class="cls-56">
          <g class="cls-21">
            <path class="cls-11" d="M56.6,70.09h5.93c.42,0,.77.34.77.77v5.93c0,.42-.34.77-.77.77h-5.93c-.42,0-.77-.34-.77-.77v-5.93c0-.42.34-.77.77-.77"/>
          </g>
        </g>
        <g class="cls-54">
          <g class="cls-22">
            <path class="cls-13" d="M64.84,70.09h5.93c.42,0,.77.34.77.77v5.93c0,.42-.34.77-.77.77h-5.93c-.42,0-.77-.34-.77-.77v-5.93c0-.42.34-.77.77-.77"/>
          </g>
        </g>
        <g class="cls-54">
          <g class="cls-20">
            <path class="cls-13" d="M73.08,70.09h5.93c.42,0,.77.34.77.77v5.93c0,.42-.34.77-.77.77h-5.93c-.42,0-.77-.34-.77-.77v-5.93c0-.42.34-.77.77-.77"/>
          </g>
        </g>
        <g class="cls-56">
          <g class="cls-17">
            <path class="cls-11" d="M81.32,70.09h5.93c.42,0,.77.34.77.77v5.93c0,.42-.34.77-.77.77h-5.93c-.42,0-.77-.34-.77-.77v-5.93c0-.42.34-.77.77-.77"/>
          </g>
        </g>
        <g class="cls-56">
          <g class="cls-14">
            <path class="cls-11" d="M48.36,78.33h5.93c.42,0,.77.34.77.77v5.93c0,.42-.34.77-.77.77h-5.93c-.42,0-.77-.34-.77-.77v-5.93c0-.42.34-.77.77-.77"/>
          </g>
        </g>
        <g class="cls-56">
          <g class="cls-18">
            <path class="cls-11" d="M56.6,78.33h5.93c.42,0,.77.34.77.77v5.93c0,.42-.34.77-.77.77h-5.93c-.42,0-.77-.34-.77-.77v-5.93c0-.42.34-.77.77-.77"/>
          </g>
        </g>
        <g class="cls-56">
          <g class="cls-15">
            <path class="cls-11" d="M64.84,78.33h5.93c.42,0,.77.34.77.77v5.93c0,.42-.34.77-.77.77h-5.93c-.42,0-.77-.34-.77-.77v-5.93c0-.42.34-.77.77-.77"/>
          </g>
        </g>
        <g class="cls-54">
          <g class="cls-36">
            <path class="cls-13" d="M73.08,78.33h5.93c.42,0,.77.34.77.77v5.93c0,.42-.34.77-.77.77h-5.93c-.42,0-.77-.34-.77-.77v-5.93c0-.42.34-.77.77-.77"/>
          </g>
        </g>
        <g class="cls-54">
          <g class="cls-37">
            <path class="cls-13" d="M81.32,78.33h5.93c.42,0,.77.34.77.77v5.93c0,.42-.34.77-.77.77h-5.93c-.42,0-.77-.34-.77-.77v-5.93c0-.42.34-.77.77-.77"/>
          </g>
        </g>
        <g class="cls-56">
          <g class="cls-38">
            <path class="cls-11" d="M48.36,86.57h5.93c.42,0,.77.34.77.77v5.93c0,.42-.34.77-.77.77h-5.93c-.42,0-.77-.34-.77-.77v-5.93c0-.42.34-.77.77-.77"/>
          </g>
        </g>
        <g class="cls-56">
          <g class="cls-39">
            <path class="cls-11" d="M56.6,86.57h5.93c.42,0,.77.34.77.77v5.93c0,.42-.34.77-.77.77h-5.93c-.42,0-.77-.34-.77-.77v-5.93c0-.42.34-.77.77-.77"/>
          </g>
        </g>
        <g class="cls-56">
          <g class="cls-40">
            <path class="cls-11" d="M64.84,86.57h5.93c.42,0,.77.34.77.77v5.93c0,.42-.34.77-.77.77h-5.93c-.42,0-.77-.34-.77-.77v-5.93c0-.42.34-.77.77-.77"/>
          </g>
        </g>
        <g class="cls-56">
          <g class="cls-41">
            <path class="cls-11" d="M73.08,86.57h5.93c.42,0,.77.34.77.77v5.93c0,.42-.34.77-.77.77h-5.93c-.42,0-.77-.34-.77-.77v-5.93c0-.42.34-.77.77-.77"/>
          </g>
        </g>
        <path class="cls-12" d="M81.32,86.57h5.93c.42,0,.77.34.77.77v5.93c0,.42-.34.77-.77.77h-5.93c-.42,0-.77-.34-.77-.77v-5.93c0-.42.34-.77.77-.77"/>
        <g class="cls-56">
          <g class="cls-34">
            <line class="cls-7" x1="50.22" y1="118.27" x2="66.71" y2="107.28"/>
          </g>
        </g>
        <g class="cls-56">
          <g class="cls-32">
            <line class="cls-7" x1="50.22" y1="118.27" x2="66.71" y2="127.06"/>
          </g>
        </g>
        <g class="cls-56">
          <g class="cls-35">
            <line class="cls-7" x1="50.22" y1="118.27" x2="66.71" y2="146.84"/>
          </g>
        </g>
        <g class="cls-56">
          <g class="cls-33">
            <line class="cls-7" x1="50.22" y1="135.85" x2="66.71" y2="107.28"/>
          </g>
        </g>
        <g class="cls-56">
          <g class="cls-28">
            <line class="cls-7" x1="50.22" y1="135.85" x2="66.71" y2="146.84"/>
          </g>
        </g>
        <g class="cls-56">
          <g class="cls-24">
            <line class="cls-7" x1="66.71" y1="107.28" x2="83.19" y2="127.06"/>
          </g>
        </g>
        <g class="cls-56">
          <g class="cls-25">
            <line class="cls-7" x1="66.71" y1="146.84" x2="83.19" y2="127.06"/>
          </g>
        </g>
        <g class="cls-53">
          <g class="cls-26">
            <line class="cls-9" x1="50.22" y1="135.85" x2="66.71" y2="127.06"/>
          </g>
        </g>
        <g class="cls-53">
          <polyline class="cls-2" points="66.71 126.32 66.71 127.06 83.19 127.06 83.19 126.32"/>
        </g>
        <path class="cls-52" d="M50.22,114.97c1.82,0,3.3,1.48,3.3,3.3s-1.48,3.3-3.3,3.3-3.3-1.48-3.3-3.3,1.48-3.3,3.3-3.3"/>
        <g class="cls-55">
          <g class="cls-27">
            <circle class="cls-8" cx="50.22" cy="118.27" r="3.3"/>
          </g>
        </g>
        <path class="cls-12" d="M50.22,132.55c1.82,0,3.3,1.48,3.3,3.3s-1.48,3.3-3.3,3.3-3.3-1.48-3.3-3.3,1.48-3.3,3.3-3.3"/>
        <path class="cls-52" d="M66.71,103.98c1.82,0,3.3,1.48,3.3,3.3s-1.48,3.3-3.3,3.3-3.3-1.48-3.3-3.3,1.48-3.3,3.3-3.3"/>
        <g class="cls-55">
          <g class="cls-29">
            <circle class="cls-8" cx="66.71" cy="107.28" r="3.3"/>
          </g>
        </g>
        <path class="cls-12" d="M66.71,123.76c1.82,0,3.3,1.48,3.3,3.3s-1.48,3.3-3.3,3.3-3.3-1.48-3.3-3.3,1.48-3.3,3.3-3.3"/>
        <path class="cls-52" d="M66.71,143.54c1.82,0,3.3,1.48,3.3,3.3s-1.48,3.3-3.3,3.3-3.3-1.48-3.3-3.3,1.48-3.3,3.3-3.3"/>
        <g class="cls-55">
          <g class="cls-30">
            <circle class="cls-8" cx="66.71" cy="146.84" r="3.3"/>
          </g>
        </g>
        <path class="cls-12" d="M83.19,122.88c2.31,0,4.18,1.87,4.18,4.18s-1.87,4.18-4.18,4.18-4.18-1.87-4.18-4.18,1.87-4.18,4.18-4.18"/>
        <path class="cls-12" d="M107.35,140.24h17.6c.67,0,1.21.54,1.21,1.21v3.99c0,.67-.54,1.21-1.21,1.21h-17.6c-.67,0-1.21-.54-1.21-1.21v-3.99c0-.67.54-1.21,1.21-1.21"/>
        <line class="cls-6" x1="116.15" y1="141.89" x2="116.15" y2="122.66"/>
        <line class="cls-5" x1="116.15" y1="122.66" x2="102.97" y2="103.98"/>
        <line class="cls-3" x1="102.97" y1="103.98" x2="120.55" y2="84.75"/>
        <line class="cls-4" x1="120.55" y1="84.75" x2="129.89" y2="71.57"/>
        <path class="cls-12" d="M116.15,135.11c2.99,0,5.42,2.43,5.42,5.42s-2.43,5.42-5.42,5.42-5.42-2.43-5.42-5.42,2.43-5.42,5.42-5.42"/>
        <path class="cls-12" d="M116.15,117.15c2.55,0,4.63,2.07,4.63,4.63s-2.07,4.63-4.63,4.63-4.63-2.07-4.63-4.63,2.07-4.63,4.63-4.63"/>
        <path class="cls-12" d="M102.97,98.69c2.49,0,4.52,2.02,4.52,4.52s-2.02,4.52-4.52,4.52-4.52-2.02-4.52-4.52,2.02-4.52,4.52-4.52"/>
        <path class="cls-12" d="M120.55,81.35c1.88,0,3.41,1.52,3.41,3.41s-1.52,3.41-3.41,3.41-3.41-1.52-3.41-3.41,1.52-3.41,3.41-3.41"/>
        <path class="cls-12" d="M129.89,68.38c1.76,0,3.19,1.43,3.19,3.19s-1.43,3.19-3.19,3.19-3.19-1.43-3.19-3.19,1.43-3.19,3.19-3.19"/>
        <line class="cls-10" x1="129.89" y1="71.57" x2="125.22" y2="62.78"/>
        <line class="cls-10" x1="129.89" y1="71.57" x2="134.83" y2="62.78"/>
        <g class="cls-54">
          <g class="cls-31">
            <path class="cls-13" d="M126.26,58.66h7.03c.49,0,.88.39.88.88v2.42c0,.49-.39.88-.88.88h-7.03c-.49,0-.88-.39-.88-.88v-2.42c0-.49.39-.88.88-.88"/>
          </g>
        </g>
      </g>
    </g>
  </g>
</svg>