<?xml version="1.0" encoding="UTF-8"?>
<svg id="Layer_1" data-name="Layer 1" xmlns="http://www.w3.org/2000/svg" viewBox="0 0 98.61 14.99">
  <defs>
    <style>
      .cls-1 {
        fill: #fff;
        stroke-width: 0px;
      }
    </style>
  </defs>
  <path class="cls-1" d="M82.17,8.7h.6c.57,0,.88.29.88.87,0,.68-.34.94-.95.94h-.53v-1.82ZM80.9,14.05h1.27v-2.66h.68c.51,0,.73.3.75.79l.04,1.21c0,.25.04.48.16.66h1.37v-.05c-.24-.12-.27-.47-.28-1.13-.02-1.33-.15-1.81-1.01-1.92v-.02c.71-.15,1.05-.71,1.05-1.55,0-1.08-.63-1.62-1.67-1.62h-2.34v6.29Z"/>
  <path class="cls-1" d="M62.19,7.76v4.39c0,1.68.98,2.03,2.01,2.03s2.01-.42,2.01-2.03v-4.39h-1.27v4.39c0,.63-.15,1.09-.74,1.09s-.74-.47-.74-1.09v-4.39h-1.27Z"/>
  <path class="cls-1" d="M66.52,7.76v6.29h1.16v-4.41h.02l1.55,4.41h1.45v-6.29h-1.16v4.31h-.02l-1.53-4.31h-1.46Z"/>
  <rect class="cls-1" x="71.02" y="7.76" width="1.27" height="6.29"/>
  <path class="cls-1" d="M72.38,7.76l1.45,6.29h1.63l1.45-6.29h-1.31l-.93,4.65h-.03l-.89-4.65s-1.36,0-1.36,0Z"/>
  <path class="cls-1" d="M77.01,7.76v6.29h3.6v-1.04h-2.34v-1.69h2.12v-1.04h-2.12v-1.48h2.25v-1.04s-3.52,0-3.52,0Z"/>
  <path class="cls-1" d="M85.02,12.09v.26c0,1.16.56,1.83,2,1.83s2.19-.6,2.19-1.93c0-.77-.25-1.25-1.2-1.67l-.98-.42c-.54-.23-.65-.47-.65-.85s.15-.73.72-.73c.48,0,.69.34.69.93h1.22v-.18c0-1.21-.82-1.69-1.95-1.69-1.2,0-1.95.63-1.95,1.85,0,1.05.52,1.52,1.65,1.9.84.29,1.13.5,1.13,1.08,0,.53-.37.78-.76.78-.67,0-.84-.38-.84-.97v-.19s-1.27,0-1.27,0Z"/>
  <rect class="cls-1" x="89.38" y="7.76" width="1.27" height="6.29"/>
  <path class="cls-1" d="M97.24,7.76l-.88,2.43h-.02l-.83-2.43h-4.7v1.04h1.37v5.25h1.27v-5.25h1.07l1.19,2.78v2.48h1.27v-2.48l1.63-3.82h-1.37,0Z"/>
  <path class="cls-1" d="M51.04,7.19h-2.1V.87h3.45c.94,0,1.74.61,2,1.41.24.74.04,1.55-.51,2.13.07.2.14.35.21.53.15.35.29.7.45,1.05l.5,1.2h-2.13s-.02-.05-.03-.07c-.08-.19-.16-.39-.25-.57l-.51-1.22c-.2-.49-.41-.96-.61-1.45.25,0,.44.04.69-.07.17-.08.43-.3.44-.7,0-.2-.06-.35-.19-.51-.13-.15-.33-.26-.58-.26,0,0-.82,0-.82,0v4.85h0Z"/>
  <path class="cls-1" d="M73.01.87v6.32h-2.1v-2.58h-1.47v2.58c-.38,0-.79,0-1.17,0h-.93V2.33h-1.47v4.86h-2.1V2.33h-1.48v4.86h-2.17c-.38-.91-.78-1.83-1.14-2.74-.04-.19-.08-.38-.14-.57v3.31h-2.17c-.43-1-.84-1.98-1.27-3-.15-.35-.27-.64-.42-1l-.02-.05-.33-.78-.48-1.12c-.04-.13-.11-.24-.15-.37h2.17c.45,1.08.89,2.15,1.36,3.21v.03c0-.12-.04-.28-.06-.4v-1.89c0-.3,0-.64,0-.95h2.17c.03.07.04.11.06.16.25.6.5,1.19.75,1.78l.57,1.29c-.01-.14-.04-.27-.06-.4V.87h8.51v2.28h1.47V.87h2.1Z"/>
  <path class="cls-1" d="M80.51.87h-1.58l-1.32,4.98-1.32-4.98h-1.58l-1.67,6.32h1.33l.29-1.34h1.68l.29,1.34h1.95l.29-1.34h1.68l.29,1.34h1.33s-1.67-6.32-1.67-6.32ZM74.89,4.81l.61-2.84h.02l.61,2.84h-1.24ZM79.11,4.81l.61-2.84h.02l.61,2.84h-1.24Z"/>
  <path class="cls-1" d="M85.98,3.03c0-.92-.13-2.25-1.95-2.25s-2.14,1.36-2.14,3.27.24,3.27,2.14,3.27c1.67,0,2-1.17,2-2.53h-1.27c0,1.36-.34,1.6-.79,1.6-.55,0-.81-.34-.81-2.25,0-1.78.15-2.42.79-2.42.57,0,.76.4.76,1.31h1.27Z"/>
  <path class="cls-1" d="M86.29,7.19h1.27v-2.81h1.49v2.81h1.27V.87h-1.27v2.42h-1.49V.87h-1.27v6.32Z"/>
  <path class="cls-1" d="M90.6.87v6.32h3.62v-1.04h-2.35v-1.7h2.12v-1.04h-2.12v-1.49h2.26V.87h-3.53,0Z"/>
  <path class="cls-1" d="M94.41.87v6.32h1.17V2.76h.02l1.56,4.43h1.45V.87h-1.17v4.33h-.02l-1.54-4.33h-1.47Z"/>
  <rect class="cls-1" x="44.65" y=".86" width=".29" height="13.25"/>
  <path class="cls-1" d="M12.06,3.67s.08.08.13.11c.05.03.11.04.17.04.06,0,.11-.01.16-.04.05-.03.09-.06.12-.1.03-.04.06-.09.07-.15.02-.05.02-.11.02-.17s0-.12-.02-.17c-.02-.06-.04-.11-.07-.15-.03-.04-.07-.08-.12-.11-.05-.03-.1-.04-.17-.04-.07,0-.13.01-.18.04-.05.02-.09.06-.12.1-.03.04-.06.09-.07.15-.02.06-.02.11-.02.18,0,.06,0,.11.03.17.02.06.04.11.08.15Z"/>
  <path class="cls-1" d="M12.68,9.24v-3.49c1.43-.17,2.54-1.39,2.54-2.87,0-1.59-1.29-2.89-2.89-2.89-1.48,0-2.69,1.11-2.87,2.54h0s-3.71,0-3.71,0c-.17-1.43-1.39-2.54-2.87-2.54C1.29,0,0,1.29,0,2.89c0,1.48,1.11,2.69,2.54,2.87v3.49c-1.43.17-2.54,1.39-2.54,2.87,0,1.59,1.29,2.89,2.89,2.89,1.48,0,2.69-1.11,2.87-2.54h3.71c.17,1.43,1.39,2.54,2.87,2.54,1.59,0,2.89-1.29,2.89-2.89,0-1.48-1.11-2.69-2.54-2.86ZM8.1,7.5l2.42-2.36c.41.33.91.55,1.46.62v3.49c-.55.07-1.05.29-1.46.62,0,0,0,0,0,0l-2.42-2.36ZM5.75,3.23h3.71c.06.53.27,1.01.57,1.41l-2.43,2.37-2.43-2.37c.31-.4.51-.88.57-1.41ZM11.47,2.48c.04-.16.09-.29.17-.42.08-.12.18-.23.3-.3.12-.08.27-.12.45-.12.22,0,.4.06.54.18.15.12.24.29.26.51h-.48c-.02-.08-.05-.16-.11-.22-.06-.06-.13-.09-.22-.09-.09,0-.17.03-.23.08-.06.05-.11.12-.14.2-.04.08-.06.16-.08.25-.02.09-.03.17-.03.24h0c.07-.09.15-.16.24-.21.09-.04.2-.06.32-.06.11,0,.21.02.31.07.1.05.19.11.26.19.07.08.12.16.15.26.03.1.05.2.05.3,0,.13-.02.25-.06.36-.04.11-.1.21-.18.29-.08.08-.17.15-.27.19-.11.05-.23.07-.36.07-.19,0-.35-.04-.47-.11-.12-.07-.22-.17-.29-.3-.07-.12-.12-.26-.15-.41-.03-.15-.04-.31-.04-.47s.02-.31.05-.46ZM7.11,7.5l-2.42,2.36s0,0,0,0c-.41-.33-.91-.55-1.46-.62v-3.49c.55-.07,1.05-.29,1.46-.62,0,0,2.42,2.36,2.42,2.36ZM2.63,1.64h.51v.42h-.51v-.42ZM2.63,2.34h.51v1.84h-.51v-1.84ZM4.25,13.38h-.52v-1.8h0l-.62,1.8h-.43l-.62-1.78h0v1.78h-.52v-2.54h.79l.59,1.75h0l.56-1.75h.79s0,2.54,0,2.54ZM5.75,11.76c-.06-.53-.27-1.01-.57-1.41,0,0,0,0,0,0l2.43-2.37,2.43,2.37s0,0,0,0c-.31.4-.51.88-.57,1.41,0,0-3.71,0-3.71,0ZM13.32,13.38h-1.8v-2.54h.56v2.07h1.24v.47Z"/>
  <path class="cls-1" d="M17.7,13.02v-.04c0-.06.02-.11.05-.15.03-.04.08-.06.14-.06.07,0,.12.02.14.05.03.03.04.08.04.14,0,.05-.01.09-.04.12-.02.03-.07.05-.13.06l-.23.06c-.07.02-.13.04-.18.07-.05.03-.09.06-.12.09s-.06.08-.07.14c-.02.05-.02.12-.02.19,0,.05,0,.11.02.16.01.05.04.1.06.14.03.04.07.08.12.11.05.03.11.04.18.04.1,0,.18-.01.24-.04.06-.03.12-.08.16-.16h0s.01.05.02.08.02.05.03.08h.39s-.03-.09-.04-.13c0-.04-.01-.1-.01-.17v-.83c0-.07,0-.13-.02-.19-.01-.06-.04-.11-.08-.15-.04-.04-.1-.08-.17-.1-.08-.02-.17-.04-.29-.04-.08,0-.15,0-.21.02-.07.02-.13.04-.18.08-.05.04-.09.09-.12.15-.03.06-.04.14-.04.23v.04s.36,0,.36,0ZM18.07,13.63s0,.08-.02.11c-.02.03-.04.05-.06.07-.02.02-.05.03-.08.04-.03,0-.06.01-.08.01-.05,0-.09-.02-.12-.06-.02-.04-.04-.09-.04-.15,0-.07.02-.13.05-.17.04-.04.09-.07.18-.09.03,0,.05-.02.08-.03.03-.01.06-.03.09-.05v.31ZM18.75,14.11h.4v-1.04c0-.17.07-.26.21-.26.06,0,.1.02.13.05.03.03.04.09.04.17v1.08h.4v-1.17c0-.16-.03-.27-.1-.34-.07-.07-.17-.11-.3-.11-.09,0-.17.02-.23.05-.07.04-.12.09-.17.17h0v-.18h-.39s0,1.57,0,1.57ZM21.03,14.11h.39v-2.09h-.4v.66h0c-.04-.06-.09-.11-.14-.14-.05-.03-.12-.05-.19-.05-.17,0-.29.06-.37.19-.08.13-.12.34-.12.63s.04.5.12.63c.08.13.2.19.37.19.08,0,.15-.02.21-.05.06-.03.11-.09.15-.16h0v.17ZM20.63,12.93c.03-.09.08-.13.17-.13s.15.04.17.13c.03.09.04.22.04.39s-.01.3-.04.39c-.03.09-.08.13-.17.13s-.14-.04-.17-.13c-.03-.09-.04-.22-.04-.39s.01-.3.04-.39ZM22.4,14.11h.42v-.88h.22c.09,0,.15.02.18.07.04.05.06.11.06.19v.4s.02.08.02.12c0,.04.02.07.04.1h.46v-.02s-.06-.06-.07-.12c-.01-.06-.02-.14-.02-.25,0-.11,0-.2-.02-.28,0-.08-.02-.14-.05-.19-.02-.05-.06-.09-.1-.11-.04-.03-.1-.04-.17-.05h0c.12-.03.21-.09.26-.18.06-.09.08-.2.08-.34,0-.18-.05-.32-.15-.4-.1-.09-.23-.13-.41-.13h-.78s0,2.09,0,2.09ZM22.82,12.33h.2c.19,0,.29.1.29.29,0,.11-.03.19-.08.24-.05.05-.13.07-.23.07h-.18v-.6ZM25.16,13.38v-.09c0-.12,0-.23-.02-.33-.02-.1-.04-.18-.09-.25-.04-.07-.1-.12-.18-.16-.08-.04-.17-.06-.29-.06-.14,0-.25.02-.33.07-.08.04-.14.11-.19.18-.04.08-.07.16-.09.26-.01.1-.02.2-.02.3,0,.1,0,.2.01.3,0,.1.03.19.07.27.04.08.1.15.18.2.08.05.2.08.34.08.19,0,.33-.05.42-.15s.14-.24.15-.42h-.36c-.01.1-.03.17-.06.22-.03.05-.08.07-.15.07-.04,0-.07-.01-.09-.03-.03-.02-.05-.05-.06-.08-.02-.03-.03-.07-.03-.12,0-.04-.01-.09-.01-.14v-.13s.8,0,.8,0ZM24.36,13.14v-.06s0-.07.01-.11c0-.04.02-.07.03-.1.02-.03.04-.05.06-.07.03-.02.06-.03.1-.03s.07,0,.1.02c.03.02.05.04.06.07.01.03.02.07.03.12,0,.05,0,.1.01.16,0,0-.41,0-.41,0ZM25.74,13.02v-.04c0-.06.02-.11.05-.15.03-.04.08-.06.14-.06.07,0,.12.02.14.05.03.03.04.08.04.14,0,.05-.01.09-.04.12-.02.03-.07.05-.13.06l-.23.06c-.07.02-.13.04-.18.07-.05.03-.09.06-.12.09s-.06.08-.07.14c-.02.05-.02.12-.02.19,0,.05,0,.11.02.16.01.05.04.1.06.14.03.04.07.08.12.11.05.03.11.04.18.04.1,0,.18-.01.24-.04.06-.03.12-.08.16-.16h0s.01.05.02.08c0,.03.02.05.03.08h.39s-.03-.09-.04-.13c0-.04-.01-.1-.01-.17v-.83c0-.07,0-.13-.02-.19-.01-.06-.04-.11-.08-.15-.04-.04-.1-.08-.17-.1-.08-.02-.17-.04-.29-.04-.08,0-.15,0-.21.02-.07.02-.13.04-.18.08-.05.04-.09.09-.12.15-.03.06-.04.14-.04.23v.04s.36,0,.36,0ZM26.12,13.63s0,.08-.02.11c-.02.03-.04.05-.06.07-.02.02-.05.03-.08.04-.03,0-.06.01-.08.01-.05,0-.09-.02-.12-.06-.02-.04-.04-.09-.04-.15,0-.07.02-.13.05-.17.04-.04.09-.07.18-.09.03,0,.05-.02.08-.03.03-.01.06-.03.09-.05v.31ZM26.73,13.59v.06c0,.08,0,.14.03.21s.05.11.09.16.1.08.18.1c.07.02.17.04.28.04.08,0,.16-.01.23-.03.07-.02.13-.05.19-.09.05-.04.09-.09.12-.15.03-.06.04-.13.04-.22,0-.12-.03-.21-.08-.28-.05-.07-.14-.13-.27-.17l-.24-.08c-.07-.02-.11-.05-.14-.08-.02-.03-.04-.07-.04-.11,0-.06.02-.1.06-.13.04-.03.08-.04.13-.04.07,0,.11.02.14.06.03.04.04.1.04.18h.36v-.06c0-.14-.04-.25-.13-.33-.09-.08-.22-.12-.41-.12-.1,0-.19.01-.26.04-.07.03-.13.06-.18.1-.05.04-.08.09-.1.15-.02.06-.03.12-.03.18,0,.11.03.2.08.27.06.07.14.13.25.17l.28.1s.07.04.1.06c.03.03.04.06.04.12,0,.06-.02.11-.06.14-.04.03-.09.05-.15.05-.07,0-.12-.02-.16-.06-.04-.04-.05-.1-.05-.17v-.05h-.36ZM28.1,13.68c.02.1.05.19.1.26.05.07.11.12.19.16.08.03.18.05.3.05.12,0,.21-.02.29-.05.08-.04.14-.09.19-.16.05-.07.08-.16.11-.26.02-.1.03-.22.03-.36s0-.26-.03-.36c-.02-.1-.05-.19-.1-.26-.05-.07-.11-.12-.19-.16-.08-.03-.18-.05-.3-.05-.11,0-.21.02-.29.05-.08.04-.14.09-.19.16-.05.07-.08.16-.11.26-.02.1-.03.22-.03.36s0,.26.03.36ZM28.48,13.1c0-.07.01-.13.03-.18.01-.05.04-.09.06-.11.03-.03.07-.04.12-.04.08,0,.14.04.17.13.03.09.05.23.05.42s-.02.34-.05.42c-.03.09-.09.13-.17.13-.05,0-.09-.01-.12-.04-.03-.03-.05-.07-.06-.11-.01-.05-.02-.11-.03-.18,0-.07,0-.14,0-.22s0-.15,0-.22ZM29.54,14.11h.4v-1.04c0-.17.07-.26.21-.26.06,0,.1.02.13.05.03.03.04.09.04.17v1.08h.4v-1.17c0-.16-.03-.27-.1-.34-.07-.07-.17-.11-.3-.11-.09,0-.17.02-.23.05-.07.04-.12.09-.17.17h0v-.18h-.39s0,1.57,0,1.57ZM31.02,12.34h.4v-.34h-.4v.34ZM31.02,14.11h.4v-1.57h-.4v1.57ZM31.72,14.11h.4v-1.04c0-.17.07-.26.21-.26.06,0,.1.02.13.05.03.03.04.09.04.17v1.08h.4v-1.17c0-.16-.03-.27-.1-.34-.07-.07-.17-.11-.3-.11-.09,0-.17.02-.23.05-.07.04-.12.09-.17.17h0v-.18h-.39s0,1.57,0,1.57ZM33.57,13.1c0-.07.02-.13.03-.18.02-.04.04-.08.06-.09.03-.02.06-.03.11-.03.08,0,.14.04.17.12.03.08.05.22.05.41,0,.07,0,.13,0,.18,0,.06-.02.1-.04.14-.02.04-.04.07-.07.09-.03.02-.06.03-.11.03s-.08-.01-.1-.03c-.03-.02-.05-.05-.06-.09-.01-.04-.02-.08-.03-.13,0-.05,0-.1,0-.15,0-.11,0-.19,0-.27ZM33.98,12.54v.18h0c-.04-.08-.09-.14-.15-.17-.06-.03-.12-.05-.17-.05-.11,0-.2.02-.26.07-.07.05-.12.11-.15.19s-.06.16-.07.26c-.01.1-.02.19-.02.28,0,.29.04.49.12.61.08.12.2.18.36.18.06,0,.13-.02.19-.05.06-.04.11-.08.15-.14h0v.21c0,.08-.02.15-.05.2-.03.05-.09.08-.17.08-.03,0-.05,0-.07-.01-.02,0-.04-.02-.06-.03-.04-.03-.06-.07-.06-.12h-.39c0,.13.05.24.14.31.09.07.22.11.4.11.24,0,.4-.05.5-.15.1-.1.15-.26.15-.47v-1.49s-.39,0-.39,0ZM34.48,12.02c.06.11.11.22.15.32.04.1.08.21.1.31s.05.21.06.32c.01.11.02.23.02.35s0,.24-.02.35c-.01.11-.03.22-.06.32s-.06.21-.1.31c-.04.1-.09.21-.15.32h.31c.15-.23.25-.45.31-.67.06-.22.09-.43.09-.64s-.03-.42-.09-.64c-.06-.22-.17-.44-.31-.67h-.31Z"/>
  <path class="cls-1" d="M17.76,8.71c-.15.23-.25.45-.31.67-.06.22-.09.43-.09.64s.03.42.09.64c.06.22.17.44.31.67h.31c-.06-.11-.11-.22-.15-.32-.04-.1-.08-.21-.1-.31s-.05-.21-.06-.32c-.01-.11-.02-.23-.02-.35s0-.24.02-.35c.01-.11.03-.22.06-.32s.06-.21.1-.31c.04-.1.09-.21.15-.32h-.31ZM18.27,10.8h.39v-1.66h0l.37,1.66h.33l.37-1.66h0v1.66h.39v-2.09h-.62l-.3,1.47h0l-.3-1.47h-.62v2.09ZM20.78,9.71v-.04c0-.06.02-.11.05-.15.03-.04.08-.06.14-.06.07,0,.12.02.14.05.03.03.04.08.04.14,0,.05-.01.09-.04.12-.02.03-.07.05-.13.06l-.23.06c-.07.02-.13.04-.18.07-.05.03-.09.06-.12.09s-.06.08-.07.14c-.02.05-.02.12-.02.19,0,.05,0,.11.02.16.01.05.04.1.06.14.03.04.07.08.12.11.05.03.11.04.18.04.1,0,.18-.01.24-.04.06-.03.12-.08.16-.16h0s.01.05.02.08c0,.03.02.05.03.08h.39s-.03-.09-.04-.13c0-.04-.01-.1-.01-.17v-.83c0-.07,0-.13-.02-.19-.01-.06-.04-.11-.08-.15-.04-.04-.1-.08-.17-.1-.08-.02-.17-.04-.29-.04-.08,0-.15,0-.21.02-.07.02-.13.04-.18.08-.05.04-.09.09-.12.15-.03.06-.04.14-.04.23v.04s.36,0,.36,0ZM21.16,10.32s0,.08-.02.11c-.02.03-.04.05-.06.07-.02.02-.05.03-.08.04-.03,0-.06.01-.08.01-.05,0-.09-.02-.12-.06-.02-.04-.04-.09-.04-.15,0-.07.02-.13.05-.17.04-.04.09-.07.18-.09.03,0,.05-.02.08-.03.03-.01.06-.03.09-.05v.31ZM22.98,9.79c0-.19-.05-.33-.14-.44-.09-.11-.24-.16-.42-.16-.09,0-.18.01-.26.04-.08.03-.15.07-.2.13-.06.06-.1.15-.13.25-.03.11-.05.24-.05.4s.01.29.04.4c.03.11.06.19.11.25.05.06.11.11.19.14.07.03.16.04.26.04.21,0,.37-.06.46-.17.09-.11.14-.27.14-.48h-.39c0,.13-.02.22-.05.28-.03.06-.08.09-.15.09-.04,0-.08-.01-.11-.03-.03-.02-.05-.05-.07-.1-.02-.04-.03-.1-.03-.17,0-.07,0-.15,0-.25,0-.09,0-.17,0-.24,0-.07.02-.12.03-.17.02-.04.04-.08.07-.1.03-.02.07-.03.12-.03.04,0,.07,0,.09.03.02.02.04.04.06.07.01.03.02.06.03.1,0,.04,0,.08,0,.11,0,0,.39,0,.39,0ZM23.21,10.8h.4v-1.04c0-.17.07-.26.21-.26.06,0,.1.02.13.05.03.03.04.09.04.17v1.08h.4v-1.17c0-.16-.03-.27-.1-.34-.07-.07-.17-.11-.3-.11-.18,0-.3.07-.38.2h0v-.67h-.4v2.09ZM24.69,9.03h.4v-.34h-.4v.34ZM24.69,10.8h.4v-1.57h-.4v1.57ZM25.39,10.8h.4v-1.04c0-.17.07-.26.21-.26.06,0,.1.02.13.05.03.03.04.09.04.17v1.08h.4v-1.17c0-.16-.03-.27-.1-.34-.07-.07-.17-.11-.3-.11-.09,0-.17.02-.23.05-.07.04-.12.09-.17.17h0v-.18h-.39v1.57ZM28.02,10.07v-.09c0-.12,0-.23-.02-.33-.02-.1-.04-.18-.09-.25-.04-.07-.1-.12-.18-.16-.07-.04-.17-.06-.29-.06-.14,0-.25.02-.33.07-.08.04-.14.11-.19.18-.04.08-.07.16-.09.26-.01.1-.02.2-.02.3,0,.1,0,.2.01.3s.03.19.07.27c.04.08.1.15.18.2.08.05.2.08.34.08.19,0,.33-.05.42-.15.09-.1.14-.24.15-.42h-.36c-.01.1-.03.17-.06.22-.03.05-.08.07-.15.07-.04,0-.07-.01-.09-.03-.03-.02-.05-.05-.06-.08-.02-.03-.03-.07-.03-.12,0-.04-.01-.09-.01-.14v-.13s.8,0,.8,0ZM27.22,9.83v-.06s0-.07.01-.11c0-.04.02-.07.03-.1.02-.03.04-.05.06-.07.03-.02.06-.03.1-.03s.07,0,.1.02c.03.02.05.04.06.07.01.03.02.07.03.12s0,.1.01.16h-.41ZM30.1,10.8v-.34h-.74v-1.74h-.42v2.09h1.17ZM31.46,10.07v-.09c0-.12,0-.23-.02-.33-.02-.1-.04-.18-.09-.25-.04-.07-.1-.12-.18-.16-.07-.04-.17-.06-.29-.06-.14,0-.25.02-.33.07-.08.04-.14.11-.19.18-.04.08-.07.16-.09.26-.01.1-.02.2-.02.3,0,.1,0,.2.01.3s.03.19.07.27c.04.08.1.15.18.2.08.05.2.08.34.08.19,0,.33-.05.42-.15.09-.1.14-.24.15-.42h-.36c-.01.1-.03.17-.06.22-.03.05-.08.07-.15.07-.04,0-.07-.01-.09-.03-.03-.02-.05-.05-.06-.08-.02-.03-.03-.07-.03-.12,0-.04-.01-.09-.01-.14v-.13s.8,0,.8,0ZM30.66,9.83v-.06s0-.07.01-.11c0-.04.02-.07.03-.1.02-.03.04-.05.06-.07.03-.02.06-.03.1-.03s.07,0,.1.02c.03.02.05.04.06.07.01.03.02.07.03.12,0,.05,0,.1.01.16h-.41ZM32.04,9.71v-.04c0-.06.02-.11.05-.15.03-.04.08-.06.14-.06.07,0,.12.02.14.05.03.03.04.08.04.14,0,.05-.01.09-.04.12-.02.03-.07.05-.13.06l-.23.06c-.07.02-.13.04-.18.07-.05.03-.09.06-.12.09s-.06.08-.07.14c-.02.05-.02.12-.02.19,0,.05,0,.11.02.16.01.05.03.1.06.14.03.04.07.08.12.11.05.03.11.04.18.04.1,0,.18-.01.24-.04.06-.03.12-.08.16-.16h0s.01.05.02.08c0,.03.02.05.03.08h.39s-.03-.09-.04-.13c0-.04-.01-.1-.01-.17v-.83c0-.07,0-.13-.02-.19-.01-.06-.04-.11-.08-.15-.04-.04-.1-.08-.17-.1-.07-.02-.17-.04-.29-.04-.08,0-.15,0-.21.02-.07.02-.13.04-.18.08-.05.04-.09.09-.12.15-.03.06-.04.14-.04.23v.04s.36,0,.36,0ZM32.42,10.32s0,.08-.02.11c-.02.03-.04.05-.06.07-.02.02-.05.03-.08.04-.03,0-.06.01-.08.01-.05,0-.09-.02-.12-.06-.02-.04-.04-.09-.04-.15,0-.07.02-.13.05-.17.04-.04.09-.07.18-.09.03,0,.05-.02.08-.03.03-.01.06-.03.09-.05,0,0,0,.31,0,.31ZM33.1,10.8h.4v-.94c0-.05,0-.1.03-.13.02-.04.04-.07.07-.09.03-.02.06-.04.1-.05.04,0,.07-.01.11-.01.02,0,.04,0,.06,0,.02,0,.04,0,.06,0v-.39s-.02,0-.04,0c-.01,0-.02,0-.04,0-.08,0-.15.02-.21.07-.06.05-.11.11-.15.18h0v-.21h-.39v1.57ZM34.1,10.8h.4v-1.04c0-.17.07-.26.21-.26.06,0,.1.02.13.05s.04.09.04.17v1.08h.4v-1.17c0-.16-.03-.27-.1-.34-.07-.07-.17-.11-.3-.11-.09,0-.17.02-.23.05-.07.04-.12.09-.17.17h0v-.18h-.39v1.57ZM35.58,9.03h.4v-.34h-.4v.34ZM35.58,10.8h.4v-1.57h-.4v1.57ZM36.28,10.8h.4v-1.04c0-.17.07-.26.21-.26.06,0,.1.02.13.05.03.03.04.09.04.17v1.08h.4v-1.17c0-.16-.03-.27-.1-.34-.07-.07-.17-.11-.3-.11-.09,0-.17.02-.23.05-.07.04-.12.09-.17.17h0v-.18h-.39v1.57ZM38.13,9.79c0-.07.02-.13.03-.18s.04-.08.06-.09c.03-.02.06-.03.11-.03.08,0,.13.04.17.12.03.08.05.22.05.41,0,.07,0,.13-.01.18,0,.06-.02.1-.04.14-.02.04-.04.07-.07.09s-.06.03-.11.03-.08-.01-.1-.03-.05-.05-.06-.09c-.01-.04-.02-.08-.03-.13s0-.1,0-.15c0-.11,0-.19,0-.27ZM38.54,9.22v.18h0c-.04-.08-.09-.14-.15-.17-.06-.03-.12-.05-.18-.05-.11,0-.2.02-.26.07-.07.05-.11.11-.15.19-.03.08-.06.16-.07.26-.01.1-.02.19-.02.28,0,.29.04.49.12.61.08.12.2.18.36.18.06,0,.13-.02.19-.05s.11-.08.15-.14h0v.21c0,.08-.02.15-.05.2-.03.05-.09.08-.17.08-.03,0-.05,0-.07-.01-.02,0-.04-.02-.06-.03-.04-.03-.06-.07-.06-.12h-.39c0,.13.05.24.14.31.09.07.22.11.4.11.24,0,.4-.05.5-.15s.15-.26.15-.47v-1.49s-.39,0-.39,0Z"/>
  <path class="cls-1" d="M18.66,6.1c0-.08,0-.16-.02-.24-.01-.09-.04-.17-.08-.24-.04-.08-.11-.14-.19-.19-.09-.05-.21-.07-.35-.07-.16,0-.28.03-.38.08-.09.05-.17.13-.21.22-.05.1-.08.21-.1.34-.01.13-.02.28-.02.44s0,.3.02.44.05.25.1.34c.05.1.12.17.21.22.09.05.22.08.38.08.14,0,.25-.02.34-.07.09-.04.15-.11.2-.18.05-.08.08-.17.1-.27s.03-.21.03-.32h-.42c0,.11,0,.2-.02.27-.01.07-.03.12-.06.16-.02.04-.05.06-.08.08-.03.01-.07.02-.1.02-.04,0-.08,0-.12-.03-.03-.02-.06-.05-.08-.11-.02-.05-.04-.13-.05-.23-.01-.1-.02-.22-.02-.38,0-.15,0-.27.01-.38,0-.1.02-.18.04-.25.02-.06.05-.11.08-.14.03-.03.08-.04.13-.04.1,0,.16.03.2.1.04.07.05.18.05.33h.42ZM18.91,7.06c.02.1.05.19.1.26.05.07.11.12.19.16.08.03.18.05.3.05.11,0,.21-.02.29-.05.08-.04.14-.09.19-.16.05-.07.08-.16.11-.26.02-.1.03-.22.03-.36s0-.26-.03-.36c-.02-.1-.05-.19-.1-.26-.05-.07-.11-.12-.19-.16-.08-.03-.18-.05-.3-.05-.12,0-.21.02-.29.05-.08.04-.14.09-.19.16-.05.07-.08.16-.11.26-.02.1-.03.22-.03.36s0,.26.03.36ZM19.29,6.48c0-.07.01-.13.03-.18.01-.05.04-.09.06-.11.03-.03.07-.04.12-.04.08,0,.14.04.17.13.03.09.05.23.05.42s-.02.34-.05.42c-.03.09-.09.13-.17.13-.05,0-.09-.01-.12-.04-.03-.03-.05-.07-.06-.11-.01-.05-.02-.11-.03-.18,0-.07,0-.14,0-.22s0-.15,0-.22ZM20.35,7.48h.4v-1.03c0-.09.02-.16.06-.2.04-.04.09-.06.15-.06.06,0,.1.02.12.05.02.04.04.09.04.15v1.1h.4v-1.03c0-.09.02-.16.06-.2.04-.04.09-.06.15-.06.06,0,.1.02.12.05.02.04.04.09.04.15v1.1h.4v-1.14c0-.15-.03-.27-.09-.35-.06-.08-.16-.12-.3-.12-.1,0-.18.02-.25.06-.07.04-.12.1-.15.19h0c-.02-.08-.06-.14-.13-.19-.06-.04-.14-.06-.24-.06-.09,0-.16.02-.23.05-.06.03-.12.08-.17.15h0v-.16h-.39s0,1.57,0,1.57ZM22.58,8h.4v-.66h0c.04.06.09.11.14.14.05.03.12.05.19.05.17,0,.29-.06.37-.19.08-.13.12-.34.12-.63s-.04-.5-.12-.63c-.08-.13-.2-.19-.37-.19-.08,0-.15.02-.21.05-.06.03-.11.09-.15.16h0v-.17h-.39v2.09ZM23.02,6.31c.03-.09.08-.13.17-.13s.14.04.17.13c.03.09.04.22.04.39s-.01.3-.04.39c-.03.09-.08.13-.17.13s-.15-.04-.17-.13c-.03-.09-.04-.22-.04-.39s.01-.3.04-.39ZM24.86,7.48h.39v-1.57h-.4v1.04c0,.17-.07.26-.21.26-.06,0-.1-.02-.13-.05-.03-.03-.04-.09-.04-.17v-1.08h-.4v1.17c0,.16.03.27.1.34.07.07.17.11.3.11.09,0,.17-.02.23-.05.07-.04.12-.09.17-.17h0v.18ZM25.63,5.91h-.2v.27h.2v.9c0,.08,0,.15.01.2,0,.05.03.09.05.13.03.03.06.05.11.07.05.01.11.02.19.02.05,0,.09,0,.13,0,.04,0,.08,0,.13-.01v-.28s-.03,0-.04,0c-.02,0-.03,0-.05,0-.06,0-.1-.01-.12-.04-.02-.03-.03-.07-.03-.13v-.85h.23v-.27h-.23v-.45h-.4v.45ZM27.59,6.76v-.09c0-.12,0-.23-.02-.33-.02-.1-.04-.18-.09-.25-.04-.07-.1-.12-.18-.16-.07-.04-.17-.06-.29-.06-.14,0-.25.02-.33.07-.08.04-.14.11-.19.18-.04.08-.07.16-.09.26-.01.1-.02.2-.02.3,0,.1,0,.2.01.3s.03.19.07.27c.04.08.1.15.18.2.08.05.2.08.34.08.19,0,.33-.05.42-.15.09-.1.14-.24.15-.42h-.36c-.01.1-.03.17-.06.22-.03.05-.08.07-.15.07-.04,0-.07-.01-.09-.03-.03-.02-.05-.05-.06-.08-.02-.03-.03-.07-.03-.12,0-.04-.01-.09-.01-.14v-.13s.8,0,.8,0ZM26.79,6.52v-.06s0-.07.01-.11c0-.04.02-.07.03-.1.02-.03.04-.05.06-.07.03-.02.06-.03.1-.03s.07,0,.1.02c.03.02.05.04.06.07.01.03.02.07.03.12s0,.1.01.16h-.41ZM27.82,7.48h.4v-.94c0-.05,0-.1.03-.13.02-.04.04-.07.07-.09.03-.02.06-.04.1-.05.04,0,.07-.01.11-.01.02,0,.04,0,.06,0,.02,0,.04,0,.06,0v-.39s-.02,0-.04,0c-.01,0-.02,0-.04,0-.08,0-.15.02-.21.07s-.11.11-.15.18h0v-.21h-.39s0,1.57,0,1.57ZM29.43,6.83v.08c0,.19.05.34.15.45.1.11.27.16.51.16s.41-.05.53-.15c.13-.1.19-.26.19-.48,0-.06,0-.12-.02-.18-.01-.05-.03-.1-.06-.14-.03-.04-.07-.08-.12-.12-.05-.04-.12-.07-.19-.11l-.32-.14c-.09-.04-.15-.08-.18-.12-.03-.04-.04-.1-.04-.16,0-.03,0-.06.01-.09,0-.03.02-.05.04-.08.02-.02.04-.04.07-.05.03-.01.07-.02.12-.02.08,0,.14.03.18.08s.05.13.05.23h.4v-.06c0-.1-.02-.18-.05-.26-.03-.07-.08-.13-.13-.18-.06-.05-.13-.08-.2-.1s-.17-.03-.26-.03c-.2,0-.36.05-.47.15-.11.1-.17.26-.17.46,0,.09.01.16.03.23.02.07.06.12.1.17.05.05.1.09.17.13.07.04.15.07.24.1.07.02.13.05.18.07.05.02.09.05.12.07.03.03.05.06.06.09.01.03.02.07.02.12,0,.09-.03.15-.08.19-.05.04-.11.06-.17.06-.06,0-.1,0-.14-.02s-.06-.04-.08-.06c-.02-.03-.04-.06-.04-.1,0-.04-.01-.08-.01-.13v-.06s-.42,0-.42,0ZM32.2,6.48c0-.19-.05-.33-.14-.44-.09-.11-.24-.16-.42-.16-.09,0-.18.01-.26.04-.08.03-.14.07-.2.13-.06.06-.1.15-.13.25-.03.11-.05.24-.05.4s.01.29.04.4c.03.11.06.19.11.25s.11.11.19.14c.08.03.16.04.26.04.21,0,.37-.06.46-.17.09-.11.14-.27.14-.48h-.39c0,.13-.02.22-.05.28-.03.06-.08.09-.15.09-.04,0-.08-.01-.11-.03-.03-.02-.05-.05-.07-.1-.02-.04-.03-.1-.03-.17,0-.07,0-.15,0-.25,0-.09,0-.17,0-.24,0-.07.02-.12.03-.17.02-.04.04-.08.07-.1.03-.02.07-.03.12-.03.04,0,.07,0,.09.03.02.02.04.04.06.07.01.03.02.06.03.1,0,.04,0,.08,0,.11,0,0,.39,0,.39,0ZM32.44,5.72h.4v-.34h-.4v.34ZM32.44,7.48h.4v-1.57h-.4v1.57ZM34.29,6.76v-.09c0-.12,0-.23-.02-.33-.02-.1-.04-.18-.09-.25-.04-.07-.1-.12-.18-.16-.07-.04-.17-.06-.29-.06-.14,0-.25.02-.33.07-.08.04-.14.11-.19.18-.04.08-.07.16-.09.26-.01.1-.02.2-.02.3,0,.1,0,.2.01.3s.03.19.07.27c.04.08.1.15.18.2.08.05.2.08.34.08.19,0,.33-.05.42-.15.09-.1.14-.24.15-.42h-.36c-.01.1-.03.17-.06.22-.03.05-.08.07-.15.07-.04,0-.07-.01-.09-.03-.03-.02-.05-.05-.06-.08-.02-.03-.03-.07-.03-.12s-.01-.09-.01-.14v-.13s.8,0,.8,0ZM33.49,6.52v-.06s0-.07.01-.11c0-.04.02-.07.03-.1.02-.03.04-.05.06-.07.03-.02.06-.03.1-.03s.07,0,.1.02c.03.02.05.04.06.07.01.03.02.07.03.12,0,.05.01.1.01.16h-.41ZM34.52,7.48h.4v-1.04c0-.17.07-.26.21-.26.06,0,.1.02.13.05.03.03.04.09.04.17v1.08h.4v-1.17c0-.16-.03-.27-.1-.34-.07-.07-.17-.11-.3-.11-.09,0-.17.02-.23.05-.07.04-.12.09-.17.17h0v-.18h-.39s0,1.57,0,1.57ZM37.15,6.48c0-.19-.05-.33-.14-.44-.09-.11-.24-.16-.42-.16-.09,0-.18.01-.26.04-.08.03-.14.07-.2.13-.06.06-.1.15-.13.25-.03.11-.05.24-.05.4s.01.29.04.4c.03.11.06.19.11.25.05.06.11.11.19.14.08.03.16.04.26.04.21,0,.37-.06.46-.17.09-.11.14-.27.14-.48h-.39c0,.13-.02.22-.05.28-.03.06-.08.09-.15.09-.04,0-.08-.01-.11-.03-.03-.02-.05-.05-.07-.1-.02-.04-.03-.1-.03-.17,0-.07,0-.15,0-.25,0-.09,0-.17,0-.24,0-.07.02-.12.03-.17.02-.04.04-.08.07-.1.03-.02.07-.03.12-.03.04,0,.07,0,.09.03.02.02.04.04.06.07.01.03.02.06.03.1,0,.04,0,.08,0,.11,0,0,.39,0,.39,0ZM38.52,6.76v-.09c0-.12,0-.23-.02-.33-.02-.1-.04-.18-.09-.25-.04-.07-.1-.12-.18-.16-.07-.04-.17-.06-.29-.06-.14,0-.25.02-.33.07-.08.04-.14.11-.19.18-.04.08-.07.16-.09.26-.01.1-.02.2-.02.3,0,.1,0,.2.01.3s.03.19.07.27c.04.08.1.15.18.2.08.05.2.08.34.08.19,0,.33-.05.42-.15.09-.1.14-.24.15-.42h-.36c-.01.1-.03.17-.06.22-.03.05-.08.07-.15.07-.04,0-.07-.01-.09-.03-.03-.02-.05-.05-.06-.08-.02-.03-.03-.07-.03-.12,0-.04-.01-.09-.01-.14v-.13s.8,0,.8,0ZM37.73,6.52v-.06s0-.07.01-.11c0-.04.02-.07.03-.1.02-.03.04-.05.06-.07.03-.02.06-.03.1-.03s.07,0,.1.02c.03.02.05.04.06.07.01.03.02.07.03.12,0,.05,0,.1.01.16h-.41ZM39.83,6.54c.04-.06.09-.09.18-.09s.14.03.18.09c.04.06.05.16.05.3,0,.06,0,.11,0,.16,0,.05-.02.09-.03.13-.02.04-.04.07-.07.09-.03.02-.07.03-.12.03s-.09-.01-.12-.03c-.03-.02-.05-.05-.07-.08-.02-.04-.03-.08-.03-.13,0-.05,0-.11,0-.16,0-.14.02-.24.05-.3ZM40.61,5.94c0-.1-.02-.18-.05-.25-.03-.07-.07-.12-.13-.16s-.11-.07-.18-.09c-.07-.02-.14-.03-.21-.03-.17,0-.3.03-.4.1-.09.06-.16.15-.21.26-.04.11-.07.23-.08.37s-.01.28-.01.42c0,.13,0,.25.02.37.01.12.04.22.09.31.04.09.11.16.2.21.09.05.2.08.35.08.23,0,.4-.06.51-.19.11-.13.16-.31.16-.55,0-.09,0-.18-.03-.26-.02-.08-.05-.15-.09-.2-.04-.06-.09-.1-.16-.13-.06-.03-.14-.05-.23-.05s-.17.02-.24.05c-.07.03-.12.08-.15.13h0v-.1c0-.08,0-.15,0-.21,0-.06.02-.12.04-.17.02-.05.04-.08.08-.11.03-.03.08-.04.13-.04.07,0,.12.02.15.06.03.04.04.11.04.19,0,0,.4,0,.4,0Z"/>
  <path class="cls-1" d="M18.66,2.79c0-.08,0-.16-.02-.24-.01-.09-.04-.17-.08-.24-.04-.08-.11-.14-.19-.19-.09-.05-.21-.07-.35-.07-.16,0-.28.03-.38.08-.09.05-.17.13-.21.22-.05.1-.08.21-.1.34-.01.13-.02.28-.02.44s0,.3.02.44.05.25.1.34c.05.1.12.17.21.22.09.05.22.08.38.08.14,0,.25-.02.34-.07.09-.04.15-.11.2-.18.05-.08.08-.17.1-.27s.03-.21.03-.32h-.42c0,.11,0,.2-.02.27-.01.07-.03.12-.06.16-.02.04-.05.06-.08.08-.03.01-.07.02-.1.02-.04,0-.08,0-.12-.03-.03-.02-.06-.05-.08-.11-.02-.05-.04-.13-.05-.23-.01-.1-.02-.22-.02-.38,0-.15,0-.27.01-.38,0-.1.02-.18.04-.25s.05-.11.08-.14c.03-.03.08-.04.13-.04.1,0,.16.03.2.1.04.07.05.18.05.33,0,0,.42,0,.42,0ZM18.92,4.17h.4v-1.04c0-.17.07-.26.21-.26.06,0,.1.02.13.05.03.03.04.09.04.17v1.08h.4v-1.17c0-.16-.03-.27-.1-.34-.07-.07-.17-.11-.3-.11-.18,0-.3.07-.38.2h0v-.67h-.4v2.09ZM20.75,3.08v-.04c0-.06.02-.11.05-.15.03-.04.08-.06.14-.06.07,0,.12.02.14.05.03.03.04.08.04.14,0,.05-.01.09-.04.12-.02.03-.07.05-.13.06l-.23.06c-.07.02-.13.04-.18.07-.05.03-.09.06-.12.09-.03.04-.06.08-.07.14-.02.05-.02.12-.02.19,0,.05,0,.11.02.16.01.05.04.1.06.14.03.04.07.08.12.11.05.03.11.04.18.04.1,0,.18-.01.24-.04.06-.03.12-.08.16-.16h0s.01.05.02.08c0,.03.02.05.03.08h.39s-.03-.09-.04-.13c0-.04-.01-.1-.01-.17v-.83c0-.07,0-.13-.02-.19-.01-.06-.04-.11-.08-.15-.04-.04-.1-.08-.17-.1-.07-.02-.17-.04-.29-.04-.08,0-.15,0-.21.02-.07.02-.13.04-.18.08-.05.04-.09.09-.12.15-.03.06-.04.14-.04.23v.04h.36ZM21.12,3.7s0,.08-.02.11c-.02.03-.04.05-.06.07-.02.02-.05.03-.08.04-.03,0-.06.01-.08.01-.05,0-.09-.02-.12-.06-.02-.04-.04-.09-.04-.15,0-.07.02-.13.05-.17.04-.04.09-.07.18-.09.03,0,.05-.02.08-.03.03-.01.06-.03.09-.05,0,0,0,.31,0,.31ZM21.81,2.41h.4v-.34h-.4v.34ZM21.81,4.17h.4v-1.57h-.4v1.57ZM22.51,4.17h.4v-.94c0-.05,0-.1.03-.13.02-.04.04-.07.07-.09.03-.02.06-.04.1-.05.04,0,.07-.01.11-.01.02,0,.04,0,.06,0,.02,0,.04,0,.06,0v-.39s-.02,0-.04,0c-.01,0-.02,0-.04,0-.08,0-.15.02-.21.07-.06.05-.11.11-.15.18h0v-.21h-.39v1.57ZM24.16,3.75c.02.1.05.19.1.26.05.07.11.12.19.16.08.03.18.05.3.05.12,0,.21-.02.29-.05.08-.04.14-.09.19-.16.05-.07.08-.16.11-.26.02-.1.03-.22.03-.36s0-.26-.03-.36c-.02-.1-.05-.19-.1-.26-.05-.07-.11-.12-.19-.16-.08-.03-.18-.05-.3-.05-.11,0-.21.02-.29.05-.08.04-.14.09-.19.16-.05.07-.08.16-.11.26-.02.1-.03.22-.03.36s0,.26.03.36ZM24.54,3.17c0-.07.01-.13.03-.18s.04-.09.06-.11c.03-.03.07-.04.12-.04.08,0,.14.04.17.13.03.09.05.23.05.42s-.02.34-.05.42c-.03.09-.09.13-.17.13-.05,0-.09-.01-.12-.04-.03-.03-.05-.07-.06-.11s-.02-.11-.03-.18c0-.07,0-.14,0-.22s0-.15,0-.22ZM25.69,4.17h.4v-1.3h.23v-.27h-.23v-.14s.01-.08.04-.1.06-.03.12-.03h.04s.03,0,.04,0v-.29c-.07,0-.15,0-.22,0-.06,0-.12,0-.18.02-.05.01-.1.03-.13.06-.04.03-.06.07-.08.12-.02.05-.03.11-.03.18v.18h-.2v.27h.2v1.3Z"/>
</svg>